<svg xmlns="http://www.w3.org/2000/svg" xmlns:xlink="http://www.w3.org/1999/xlink" preserveAspectRatio="none" width="550" height="400"><defs><radialGradient id="a" gradientUnits="userSpaceOnUse" cx="0" cy="0" r="55.463" fx="0" fy="0" gradientTransform="matrix(1 0 0 1.74465 137.75 62.8)" spreadMethod="pad"><stop offset="0%" stop-color="#93D0E4"/><stop offset="43.137%" stop-color="#00A5D4"/><stop offset="98.039%" stop-color="#006293"/></radialGradient><radialGradient id="b" gradientUnits="userSpaceOnUse" cx="0" cy="0" r="39.75" fx="0" fy="0" gradientTransform="translate(105.85 44.65)" spreadMethod="pad"><stop offset="0%" stop-color="#93D0E4"/><stop offset="43.137%" stop-color="#00A5D4"/><stop offset="98.039%" stop-color="#006293"/></radialGradient><radialGradient id="c" gradientUnits="userSpaceOnUse" cx="0" cy="0" r="7.325" fx="0" fy="0" gradientTransform="matrix(1 0 0 .99317 37.4 7.85)" spreadMethod="pad"><stop offset="0%" stop-color="#93D0E4"/><stop offset="43.137%" stop-color="#00A5D4"/><stop offset="98.039%" stop-color="#006293"/></radialGradient><radialGradient id="d" gradientUnits="userSpaceOnUse" cx="0" cy="0" r="31.6" fx="0" fy="0" gradientTransform="matrix(1 0 0 .99407 42.75 64.85)" spreadMethod="pad"><stop offset="0%" stop-color="#DDEFF4"/><stop offset="100%" stop-color="#07B1D3"/></radialGradient><radialGradient id="e" gradientUnits="userSpaceOnUse" cx="0" cy="0" r="29.987" fx="0" fy="0" gradientTransform="matrix(1 0 0 .99416 17.5 35.15)" spreadMethod="pad"><stop offset="0%" stop-color="#93D0E4"/><stop offset="43.137%" stop-color="#00A5D4"/><stop offset="98.039%" stop-color="#006293"/></radialGradient><path fill="#BC5E39" d="M716.5 344.45q7.35-4.6 7.65-9.25.35-5.55-9.65-9.55-19.4-7.7-21.95-6.4-1.45.7 3.75 6.35 4.8 5.2 2.1 5.2-4.3.05-26.9-9.75-10.1-4.4-17.3 3.3-2.75 3-4.15 7-1.35 3.75-.85 6.5.35 1.75 6.2 4.2 5.3 2.2 4.75 2.55-2.05 1.45-6.7 1-5.55-.8-8.4-.85-10.65-.05-13.1 13.6-1.15 6.5-12.75-15.2-5.85-11.2-8.05-15.45-3.8-7.1-4.15-6.4-1.1 2.05-5.05 1.7-.4 0-8.3-1.45-12.1-2.15-15.75 4.6-4.15 7.7 13.45 42.9 4.1 8.2 12.4 23.55 5.65 10.5 5.35 10.8-8.4-14.9-17.65-30.25-18.55-30.85-24.55-30.9-19.95-.1-23.85 16.6-3.3 13.85 4.8 36.55 7 19.7 18.55 36.3 11.4 16.4 17.35 15.75l-.35-3.05q6.9 1.95 25.3 5.65 19.6 4 24.95 5.35 17.2 4.45 33.55 2.3 14.6-1.9 25.6-8.55 10.4-6.3 14.05-14.5 3.8-8.45-1.1-15.55-6.2-9.05-6.35-14.4-.05-4.2 3.85-7.5 2.3-1.9 7.8-5.75 4.6-3.95 5.65-9.3 1.45-7.5-3.65-16.65-4.5-8.05-8.4-9.5-2.2-.8-2.55-1.1-.6-.55.4-1.45.85-.75 14-9z" id="f"/><path fill="#BC5E39" d="M788.4 284.45l1.75 2.65q-7.85 1-28.05 4.9-21.55 4.2-27.55 5.05-19.3 2.8-34.85 11.25-13.9 7.6-22.1 18.1-7.7 9.9-7.8 18.9-.1 9.25 7.9 13.8 10.1 5.75 7.55 10.7-1.8 3.55-12 8.35-14.2 6.75-16.8 8.4-8.1 5.3-6.75 10.8 1.8 7.45 11 13.8 8.05 5.6 12.6 5.35 2.6-.15 3.1 0 .85.2.2 1.5-.5 1.05-10.2 13.8-2.25 3 .95 6.95 2.95 3.55 9.6 7 14.75 7.6 28.1 7.25 1.1-.05 3.4.85 4.4 1.65 4.65 1.75 6.7 2.2 12.2.45 1.55-.5 5.9-.7 3.6-.15 4.5-1 4.6-4.2-.95-8.45-2.2-1.65-10.8-5.6-2.55-1.2-2.8-1.7-.4-.65 2.25-.9 5.2-.4 29.8.8 17.2.85 19.85-9.65 1-4.1-.65-8.85-1.5-4.45-4.6-7.45-1.7-1.7-6.85-2.55-4.65-.55-4.55-.75 1.45-2.2 8.5-3.1 4.05-.55 13.6-1.5 8.15-1.3 11.65-4.4 4.55-4 2.55-11.7-1.65-6.4-6.8-11.05-2.45-2-3.25-2.75-1.35-1.2-1.3-2 .2-2.3 3.35-3.55.25-.1 6.9-1.95 10.05-2.85 10.75-10.45.8-8.75-9.8-15.7-2.55-1.7-7.3-4.1-3.25-1.65-3.1-2.05.2-.45 1.55 1.15 2.8 1.55 9.2.25 13.55-2.75 20.6-8.1 7.2-5.5 6.1-12.5-1.75-11.15-13-22.85-5.1-5.25-9.8-7.6-5.1-2.55-8.4-.85z" id="g"/><path fill="#BC8E61" d="M781.1 530.95q1.8-2.45-3.95-5.85-5.8-3.35-11.4-3-2.15 4.65-6.8 14.35-4.45 9.15-6.8 14.3l14.4 8.5q5.8-10.15 7.75-13.9 4.15-7.75 6.8-14.4z" id="h"/><path fill="#0061A0" d="M792.6 476.45l-113.85-39.2L607 609.6l116.65 41 68.95-174.15z" id="i"/><path fill="#FFF" d="M85.9 0L14.15 172.35l116.65 41L199.75 39.2 85.9 0z" id="j"/><path fill="#2E3F5A" d="M71.75 2.75L0 175.1l116.65 41L185.6 41.95 71.75 2.75z" id="l"/><path fill="#F3CBA9" d="M741.65 537.35q-4.55-.5-7.9 6.65-3.35 7.05-1.25 11.85 27 10.95 34.7 10.65 2.9-3.6 4.6-9.6 1.6-5.65.85-8.55-14.05-7.85-31-11z" id="m"/><path fill="#F3CBA9" d="M720.35 558.55q-3.65 7.6-1.4 12.85 29.55 11.8 37.7 11.55 3.1-3.95 4.9-10.4 1.75-6.15.95-9.25-15-8.45-33.6-11.95-4.9-.5-8.55 7.2z" id="n"/><path fill="#F3CBA9" d="M719.95 579.15q-3.65 7.65-1.4 12.85 29.65 11.85 37.65 11.55 3.15-3.9 5-10.35 1.75-6.2.9-9.3-15.15-8.5-33.6-11.9-4.9-.55-8.55 7.15z" id="o"/><path fill="#B4B4B4" d="M737.95 462.65q-.75 2.15-.65 4.35.1 1.35.65 3.9.4 1.65.5 2.7.35 2.4 3.55 12.65 3.15 10.15 6.75 20.35 5.35 15.1 8.05 19.1l.4.5q.4.55.8.7 2.35 1.7 10.9 4.5l1.45.45 1.25-3.45-1.6-.5q-1.2-.4-6-1.55-3.75-.9-3.7-1.1l.1-1.55-1.55-.35q-.4-.05-6.65-17.95-3.55-10.15-6.65-20-3.15-10.05-3.45-12.3-.05-.35-.6-2.95-.45-1.95-.5-2.95-.15-1.55.3-2.95.4-.45 1.2-1.75l.9-1.5.25-3.65q-1.4-.1-2.5.95-.7.6-1.75 2.3-.75 1.15-.9 1.25l-.35.35-.2.45z" id="q"/><path fill="#843E2C" d="M655 530.55q3.75 12.6 13.1 39.75 9.4 27.4 13.45 40.9 6.75 22.45 9.25 38.45.7 4.6 5.5 8.75 5.7 4.85 6.85 7.3.75-.1 1.55-.25.45-.2.5-1.35l.35-4.5q1.1-15.75-13.05-65.1-.4-1.5-11.45-39-6.4-21.65-8.7-31.7-.95-4.2-15.25-36.1-12.372-27.571-13.05-33.5.247 6.77-.65 10.55-.55 2.2-1.7 4.7-1.25 4.15 4.8 22.9l.4 3.2q1.8 13.95 8.1 35z" id="r"/><path fill="#AA3930" d="M741.5 638.6q1.45-11.05-.15-13.05-4.2-5.35-35.85-13.25-17.5-4.2-25.7-6.15-14.55-3.5-21.05-5.6l-9.65-3.2q-.8.05-1.25 2.3-4.7 1.15.6 52.5 1.1 11 4.2 37.6 2.2 18.9 2.25 22.05 12.1 3.25 17.35 4.25 8 1.55 14.1 1.1 12.8-.95 30.5-13.1 10.65-7.3 19.7-41.25 3.55-13.25 4.95-24.2z" id="s"/><path fill="#7F361D" d="M638.35 1098.75q-8-.3-12.65 0-8.6.55-10.6 3.75-4.8 7.65-6.2 12.15-2.1 6.7.2 13.1 2.2 4.6 16.8 8.35 12.75 3.25 31.1 5.05 17.25 1.65 30.2 1.2 13.7-.5 14.4-3.15 2.1-6.15-7.55-12.35-6.7-4.3-22.4-10.2-19.8-7.5-23.3-9.1-10.55-4.9-10-8.8z" id="t"/><path fill="#1A1414" d="M642.4 1108.85q-1.35 1.4-9.2 2.5-8.5 1.15-9.2 1.5.05.2.2.3.1.05.15.3 1.2 5.35 25.25 9.85 9.55 1.75 17.05 2.15 7.9.4 8.9-1.05 2.65-2.55-13.55-8.85-10.05-3.9-19.6-6.7z" id="u"/><path fill="#9D4C2C" d="M560.6 1103.4q-9.1.55-11.3 4-5.1 8.2-6.6 12.95-2.25 7.25.2 14 2.35 4.9 17.95 8.9 13.6 3.5 33.2 5.4 18.4 1.8 32.3 1.3 14.65-.5 15.35-3.35 2.2-6.6-8.05-13.2-7.2-4.6-24-10.9-21.15-8-24.85-9.7-11.25-5.2-10.65-9.4-8.55-.3-13.55 0z" id="v"/><path fill="#393235" d="M558.8 1118.45q.05.2.2.3.15.1.2.35 1.25 5.75 26.95 10.5 10.2 1.9 18.25 2.3 8.45.4 9.5-1.15 2.8-2.65-14.45-9.4-10.4-4.05-20.95-7.2-1.5 1.55-9.85 2.7-9.1 1.25-9.85 1.6z" id="w"/><path fill="#1A1414" d="M678.7 669.4q-.1-13.95.15-18.15-13.45-1.4-40.05-6.9-26.6-5.5-40.1-6.9 8.5 127.6 13.9 239.85 7.35 152.1 7.2 239.9 5.2 2.95 14.55 2.9 8.3 0 12.2-1.9.1-36.75 5-95.3 2.95-35.15 10.8-110.4 7.8-75.25 10.75-110.4 4.9-58.5 5-95.3.75-21.15.6-37.4z" id="x"/><path fill="#393235" d="M612.6 716.45q22-22.3 28.1-30.95 8.6-12.25 15.2-34.1-13.5-1.4-65.3-3.05-51.85-1.7-65.35-3.1-1.3 43.2 3.45 109.7 3.1 43.7 11.2 125.9 9.1 91.55 11.9 126.35 5.55 67.85 5.45 111.15l25.75-.75q.1-36.75 4.7-93.7 2.75-34.15 10.1-106.85 7.35-72.75 10.1-106.9 4.6-56.9 4.7-93.7z" id="y"/><path fill="#1A1414" d="M557.4 647.15q-22.3-.9-32.15-1.9-1.3 43.2 3.45 109.7 3.1 43.7 11.2 125.9 9.1 91.55 11.9 126.35 5.55 67.85 5.45 111.15l25.75-.75v-.9q-15.45-132.3-15.95-245.05-.75-163.45 32.75-223.05-35.05-1.15-42.4-1.45z" id="z"/><path fill="#AA3930" d="M612.85 691.45q17.75-1.2 30.3-3.05 39.5-5.85 37.1-19-19.65 5.75-74.2 6.45-52.5.65-72.95-3.6-9.6-2.05-9.2 5.7.25 3.85 2.45 8.2 5.2 3.75 32.1 5.75 24 1.8 34.4.8 3.45-.35 20-1.25z" id="A"/><path fill="#BC5E39" d="M725.4 175.65q-14.25 13.7-18.6 17.45-13.45 11.65-20.95 26.3-6.7 13.1-7.5 25.95-.7 12.1 3.95 19.8 4.8 7.9 13.4 7.9 11 .05 15.5 3 3.5 2.3 3.95 7.4.3 2.95.3 9.7.65 6.05 4.45 9.95 5.35 5.45 15.8 6.45 9.2.9 12.55-1.55 1.95-1.35 2.4-1.5.75-.2.95 1.2.15 1.2-.55 16.6-.4 8.65 3.3 11.6 4.35 3.45 13.3-2.55 17.35-11.55 17.75-14.4.2-1.6-7.4-.5-7 1-5.5-1.25 2.45-3.55 23.35-16.55 9.4-5.85 7.1-16.1-.85-4-3.35-7.45-2.35-3.2-4.9-4.35-1.6-.75-6.95 2.7-4.8 3.1-4.8 2.45-.05-2.5 2.95-6.05 1.7-2.05 5.5-6.45 6.05-8.75-3.75-18.5-4.65-4.6-9.05-5.55-1.95-.25-2.6-.4-1.05-.2-1.4-.9-1.05-2.05.05-4.85.15-.3 2.9-5.35 4.25-7.8.8-14.6-3.95-7.75-9.7-10.6-4.85-1.4-5.05-2.2-.1-.45 1.7-.05 2.65-.45 6.05-5.35 11.4-16.35 10.3-28.2-.9-9.85-9.95-14.95-7.85-4.45-17.5-3.5-9.6.9-12.45 6.2l2.7 1.4q-5.45 4.5-19.05 17.65z" id="B"/><path fill="#BC5E39" d="M438.3 361.8l1.25-2.95q-3.7-1.2-8.45 2.2-4.35 3.15-8.55 9.35-9.25 13.8-8.9 25.45.2 7.35 8.65 11.8 8.25 4.35 22.65 5 6.8.35 9.35-1.7 1.25-.95 1.4-1.4.2.4-2.8 2.6-4.35 3.2-6.65 5.3-9.55 8.85-7.05 17.65 2.2 7.7 13.05 9 7.05.85 7.4.9 3.5.8 4.15 3.15.2.8-.95 2.25-1.7 1.95-2.75 3.3-4.4 5.6-4.85 12.4-.55 8.2 4.85 11.6 4.2 2.6 12.8 2.65 4.85 0 14.2-.65 7.4-.2 9.3 1.8-2 .65-4.55 1.5-5.1 1.7-6.5 3.7-2.55 3.55-3.25 8.35-.8 5.15 1.05 9.2 4.7 10.35 22.15 6.7 25-5.15 30.35-5.55 2.75-.2 2.5.55-.15.55-2.55 2.15-8.05 5.4-9.95 7.5-4.85 5.25.6 8.8 4.3 2.8 17.6-1.4 6.75-2.1 13.55-4.9 11.8-1.5 10.35-9.25-1.1-5.95-8.9-13.3-12.3-11.5-13.05-12.5-.9-1.2-.1-1.6.5-.2 3.2-.45 4.7-.45 11.85-7.5 8.15-7.95 8.6-15.9.3-5.65-3.7-10.75-5.1-5.25-7.1-7.75-3.5-4.3-2.25-8.5 1.6-5.4 10.95-13 7.35-5.95 5.5-15.4-1.85-9.2-11.65-18.1-10.4-9.4-26.1-14.95-17.6-6.2-37.9-6-6.35.05-29.15-.8-21.45-.8-29.65-.55z" id="C"/><path fill="#BC5E39" d="M701.7 341.6q-4.45-8.05-8.35-9.45-2.25-.85-2.6-1.15-.6-.5.4-1.45.85-.8 14-9 7.35-4.55 7.7-9.25.35-5.55-9.7-9.55-19.4-7.7-21.95-6.4-1.4.7 3.8 6.35 4.8 5.25 2.1 5.25-4.3 0-26.9-9.8-10.15-4.4-17.3 3.3-2.8 3.05-4.2 7-1.3 3.8-.8 6.5.3 1.75 6.2 4.2 5.25 2.2 4.75 2.55-2.05 1.45-6.7 1-5.55-.8-8.4-.85-10.65-.05-13.1 13.6-1.15 6.5-12.8-15.2-5.8-11.2-8.05-15.45-3.8-7.1-4.15-6.4-1.05 2.05-5 1.7-.4 0-8.35-1.45-12.1-2.15-15.7 4.6-4.15 7.7 13.45 42.9 4.15 8.35 12.4 23.55 5.65 10.5 5.35 10.8-8.4-14.9-17.65-30.25-18.55-30.85-24.55-30.9-19.95-.1-23.85 16.6-3.3 13.85 4.75 36.55 7.05 19.75 18.55 36.3 11.4 16.4 17.4 15.75l-.4-3.05q6.85 1.95 25.35 5.7 19.45 3.9 24.95 5.35 17.2 4.45 33.55 2.25 14.65-1.9 25.6-8.55 10.4-6.3 14.05-14.5 3.8-8.45-1.1-15.55-6.25-9.05-6.35-14.4-.1-4.2 3.85-7.45 2.3-1.95 7.8-5.8 4.6-3.95 5.65-9.3 1.4-7.5-3.7-16.65z" id="D"/><path fill="#BC5E39" d="M448.2 356.3q-3.6 13.9 5.25 36.6 7.7 19.7 20.4 36.3 12.6 16.4 19.15 15.75l-.45-3.05q7.6 1.95 27.9 5.65 21.6 4 27.5 5.35 18.95 4.45 36.9 2.3 16.1-1.9 28.2-8.55 11.4-6.3 15.4-14.5 4.15-8.45-1.2-15.55-6.85-9.05-7-14.45-.05-4.15 4.25-7.45 2.5-1.95 8.6-5.8 5.05-3.95 6.2-9.3 1.6-7.5-4.05-16.65-4.9-8.05-9.2-9.45-2.45-.8-2.85-1.1-.65-.55.45-1.45.9-.75 15.4-9 8.1-4.55 8.45-9.3.35-5.55-10.65-9.5-21.35-7.7-24.15-6.4-1.6.7 4.1 6.35 5.3 5.2 2.3 5.2-4.7 0-29.55-9.8-11.15-4.4-19.05 3.35-3.05 3-4.55 7-1.45 3.75-.9 6.5.35 1.75 6.8 4.15 5.8 2.2 5.25 2.6-2.25 1.45-7.35 1-6.15-.8-9.3-.85-11.7-.05-14.4 13.6-1.3 6.5-14.1-15.2-6.4-11.2-8.85-15.45-4.15-7.1-4.55-6.4-1.2 2.05-5.55 1.7-.45 0-9.15-1.45-13.3-2.15-17.3 4.55-4.55 7.7 14.8 42.95 4.55 8.2 13.65 23.5 6.2 10.5 5.9 10.85-.2.2-6.05-9.25-8.3-13.35-13.4-21.05-20.4-30.8-27-30.85-21.95-.1-26.25 16.55z" id="E"/><path fill="#BC5E39" d="M405 265.85l.7-.35q-4.7-2.1-11.75 3.15-7.1 5.3-11 13.95-4.4 9.8-1.85 18.75 3.05 10.6 15.55 17.6 5.7 3.2 8.55 1.85.7-.35 1.3-1.05.35-.45.45-.25.3.9-3.45 5.05-3.65 6.05-2.85 15.65.7 8.45 13.7 11.55 8.6 2.1 8.95 2.2 4.1 1.4 4.3 3.95.1.9-2.2 2.25-3.3 1.8-5.35 3.05-8.15 5.05-9.8 12.15-3.5 14.95 7.15 19.6 2.85 1.25 8.8 2.85 4.85 1.6 6.25 4 .35.6-5.85.5-6.95-.1-8 1.5-1.7 2.55-2 6.95-.35 4.7 1.1 9 3.8 11 15.85 11 26.85 0 31.15 1.9 2.7 1.25-4.35 4.4-7.65 3.45-6.5 4.8 2 2.4 24.7 3.15 11.75.4 13.8-5.4 1.75-4.9-3.6-12.8-9.6-14.15-10.1-15.3-.65-1.45.2-1.7.5-.15 3.1 0 4.5.35 12.45-5.85 9.1-7.1 10.9-15.35 1.2-5.4.6-11.95-.65-7.5-.45-9.3.45-4.8 4.2-9.25 4.45-5.25 14.8-11.85 7.9-5 5.7-15.3-2.15-9.85-12.6-20.9-10.85-11.55-26.7-20-17.5-9.4-36.75-12.5-6.35-1.05-24.3-5.9-17.3-4.75-24.8-5.8z" id="F"/><path fill="#BC5E39" d="M502.45 114.75q-3.3-9.4-4.75-12.1-3.1-5.7-7.75-7.3-10.8 8.35-14.25 13.8-2.8 4.45-1.65 9.05.7 2.8 3.3 9.4 1.95 6.9.65 14.85-.75 4.65-12.1 6-13.8.65-19.05.9-17.15.85-18.05 15.05-.6 9.6 5.35 20.9 1.2 2.25-1.7 3-1.75.4-7.6.5-13.05.15-15.35 3.75-8.05 12.65.85 23.6 2.15 2.65 7.55 7.4 4.25 3.75 4.8 5.4 1.4 3.95.15 6.5-.95 1.9-4 3.8-5.2 3.3-5.6 3.6-3.2 2.5-4.6 5.8-5.3 12.65 4.6 18.9 3.25 2 8.4 3.5 2.7.8 6.45 1.7.9.3-1.2 1.2-3.35 1.35-5.5 2.3-9.15 4-10.05 8.35-1.05 5.35 5.05 11.9 3.35 3.6 9.7 9.35 6.25 7.25 4.05 9.5-2.2 2.35-11.75-2.8-1.15.45 5.1 5.55 6.55 5.35 16.9 12.3 27.2 18.25 51.55 28.3 31.9 13.15 46.25 5.85 17.8-9.05 6.1-49.35-5.4-18.6-1.35-47.85 1.15-8.6 4.25-25.1 3.2-17 4.35-24.8 4.05-28.4-1.15-45.3-6.85-22-30.65-33.9-6.9-3.45-11.35-10.35-2.95-4.6-5.95-13.15z" id="G"/><path fill="#A44A31" d="M679.6 392.55q7.75 0 35.05-20.25 27.25-20.2 32.85-30.05.8-1.4 11-18.2 5.3-8.75 7.55-14.4 5.7-14.1 3.15-37.95l-297.5-1.25q0 27.15 7.3 52.35 9.05 31.15 26.35 45.3 40.45 33.05 9.85 67.65-10.6 11.9-29.9 24.1-7.3 4.6-27.45 15.6 4.95 0 15.15 1.1l18.3 2.05q23.05 2.3 29.75-.9 18-8.6 52.25-.75 11.8 2.7 28.4 8.05 9.15 2.95 25.2 8.25 23.6 7.35 33.3-.75 7.6-6.35 8.75-25.5.35-5.3.4-18.1.1-12.55.55-19.45 1.5-23.45 9.7-36.9z" id="H"/><path fill="#DC8B53" d="M634.95 680.25q0-.6-17.15.8-17 1.4-18.05 1.85 0 4.25-1.45 10.9-.3 4.35 5 3.5 1.75-.3 10.4-1.1 6.7-.65 10.4-1.7 11.15-3.2 10.85-14.25z" id="I"/><path fill="#6598D1" d="M667.8 590.45q-5.95-54.15-10.05-85.8-5.65-43.45-9.15-55.95-10.4-37-35.75-43.4-8.65-2.15-20.4-1-12.2 1.85-16.75 2.25-3.7.35-9.7 33.55-3.6 19.85-11.45 72.95-7.75 52.85-11.4 72.9-6.05 33.2-9.75 33.55-.15 1.9-1.8 4.75-2.25 3.9-3.45 7.35-4.9 14.05-5 46.6 11 5.05 33.35 7.55 21.2 2.4 46.3 1.85 25.6-.5 46.7-3.9 22.8-3.65 34.3-9.75-.55-6.9-7.25-36.65-7-31-8.75-46.85z" id="J"/><path fill="#3A7BBE" d="M649.5 683.7q22.8-3.65 34.3-9.75-.35-4.2-1.8-11.65-1-5-3.3-15.45-4.45-2.7-4.75-2.9-2.85-2.1-5.85-1.25-1.95.6-5.7 3.45-4.5 3.45-6.85 4.7-4.5 2.4-9.3 2.55-29.2 1.05-38.65-12.95-8.15-12.05-3.75-40 4.8-30.5 5.9-44.5 1.15-14.6 1.15-45.3 0-13.5 1.3-17.2 1.95-5.65 6.75 11.45 3.9 13.8 7.05 13 2.6-.65 2.95-8.1.7-17.8 4.8-30.5 6.35-19.6 17.4-5.75l-6.15-35.6q-11.35-28.9-34.95-33.25-8.05-1.5-18.85-.25-11.25 1.7-15.5 2.1-3.7.35-9.7 33.55-3.6 19.85-11.45 72.95-7.75 52.85-11.4 72.9-6.05 33.2-9.75 33.55-.15 1.9-1.8 4.75-2.25 3.9-3.45 7.35-4.9 14.05-5 46.6 11 5.05 33.35 7.55 21.2 2.4 46.3 1.85 25.6-.5 46.7-3.9z" id="K"/><path fill="#F3CBA9" d="M477.85 622.35q-15.9-3.9-11.25 4.25l-.85 88.4 21.4-1.45 11.1-80.3-3.6-5.35q-8.9-3.6-16.8-5.55z" id="L"/><path fill="#F3CBA9" d="M476.9 685.25q-2.25 2.5-4.8 5.5-2.6 3-4.85 5.45-.5 9.75-6.35 37.45-5.15 24.45-4.35 36.1 2.15 2.95 5.05 2.55 4-.55 6.25-8.5.15 3 .5 11.45 2.35 1.4 5.55 1.7 3.75.3 5.25-1.5.2-11.25 1.85-18 .25 1.85 2.2 7.35 1.95 5.4 2.2 7.3 2.5 1.05 7-.25 5-1.45 4.35-4.65-.6-7.55-2.7-20.65-2.05-12.95-2.65-20.7 2.65 4.25 4.85 7 2.4 3.05 5.8 6.35 2.2-.25 4.8-4.8 2.7-4.7 1.4-7.05l-31.35-42.1z" id="M"/><path fill="#1A1414" d="M685.55 469.9q-5-7.7-21.65-23.5-19.2-18.2-30.15-31.9-5.8-7.25-9.05-7.35-.7 0-1.8.5-.253.118-.5.15 2.429 2.333 10.7 22.8 9.5 23.5 10.45 28.95 4.95 29.8 5.45 71.85.3 24.4-1.3 69.75-1.35 39.45-.65 52.25 1.1 20.35 7.3 19.25 10.45-1.85 20.15-6.05 7.55-3.3 11.1-6.2-1.9-9.05-5.75-26.4-3.2-14.45-4.2-19.6-3.95-20.4-4.05-29.4-.2-15.1 5.7-41.5 13.35-28.2 14.85-45.55 1.4-15.65-6.6-28.05z" id="N"/><path fill="#393235" d="M588.05 430.75q-4.55-7.65-5.5-9.35-3.2-4.3-4.35-8.75-.9-3.3-.75-7.6l-43.7 32.3q8 34.45 10.75 59 2.85 25.7.95 49.1-1.8 22.5-8.65 49.8-5.75 22.85-18.15 60.95.2 7.65 15.85 12.6 15.55 4.95 36.9 4.35 6.15-.2 13.7-29.4 7.15-27.75 12.2-67.55 5.3-41.85 5.4-75.75.15-38.45-6.7-54.05-3.2-7.35-7.95-15.65z" id="O"/><path fill="#241D1E" d="M588.3 431.2q-4.8-8.05-5.75-9.8-2.85-3.85-4.1-7.75-.95-3.15-1-6.9l-1.45-.6-42.25 31.2q7.75 33.4 10.55 57.4 2.95 25.15 1.4 47.8-1.5 21.95-7.7 47.85-5.3 22.3-16.6 57.45l.15 14.15q5.5 5.4 19.15 8.5 13.85 3.15 30.7 2.65 4.2-.15 9.3-14.7 4.8-13.65 9.4-37.05-6.5-13.2-11.85-38.85-5.6-26.85-7.35-55-1.9-31.7 1.85-55.65 4.25-27.5 15.55-40.7z" id="P"/><path fill="#50494E" d="M551.7 473.7q.3-12.75-5.5-25.15-5.85-12.6-12.1-11.95-10.45 17.1-37.9 57.3-22.75 34.75-25 48.25-4.5 23.05-5.6 47.4-.5 11.2-.45 43.5 11.1.65 11.45.7 9 1.1 21.35 5.3.7-8.7 1.25-23.3l.95-24.3q1.3-28.55 5-39.6 2.9-11.3 19.25-36.35 19.55-28.75 27.3-41.8z" id="Q"/><path fill="#9A9B9B" d="M452.85 620.2l1.15 23.3 63.05 2.7-10.15-30.05-54.05 4.05z" id="R"/><path fill="#5C332A" d="M735.6 631.15q-.3-2.65-6.6-2.45-5.65.15-8.85 1.75-.1.1-1.1 13.3-1.45 15.5-3.95 25.85-3 12.5-8.5 25.95-2.7 6.65-4.9 11.35 4.5.15 8.4-3.9 3.8-3.9 7.95-12.7 3.1-5.95 10.05-27.15 8.25-24.9 7.5-32z" id="S"/><path fill="#CDCBCA" d="M587.6 428.1q-8.3-18.45-10.9-22.7-.65-1.05-3.35-.15-2.85.95-5.35 3.35-6.95 6.6-3.45 16.25.05.25 3.6 27.5 4.05 27.3 6.3 28 2.1.65 4.4-1.65 1.35-1.35 4.5-5.9 6.95-10.15 13-12.6.45-.25 2.5-.4 1.9-.15 2.3-.1-5.3-13.25-13.55-31.6z" id="T"/><path fill="#9A9B9B" d="M659.4 459.55q5.25 2.55 10 6.45 0-6.35-5.7-17.2-5.15-9.9-13.25-20.3-8.05-10.35-15.3-16.4-7.85-6.6-11.65-5.5-2.8.8-1.05 5.25.35.85 3.6 6.7l.45.75q4.55 8.15 18.5 41.7 4.05-6.55 14.4-1.45z" id="U"/><path fill="#D9A36E" d="M600.75 353.35q-7.35-2.15-11.25-2.2-5.35-.1-7.25 3.25-3 5.2-3.15 26.65-.1 18.3 1.35 29.45.2 1.65 8.1 12.2 10.1 13.35 15.15 21.9 6.25 10.55 13.65 32.25 3.75 10.95 7.2 21.65 1.6 3.05 1.5-17-.1-20.6-2.1-37.8-1.1-9.6-4.65-22.25-3.2-11.45-3.2-11.65.65-17.55 1.4-27.1 1.35-17.05 5.4-25-3.35.8-9.95-.8-8.1-2.4-12.2-3.55z" id="V"/><path fill="#C78C51" d="M579.75 366.25q-.9 9.9-.55 24.35.3 12.8 1.25 19.9.2 1.65 8.1 12.2 10.1 13.35 15.15 21.9 7.1 12.05 16.25 40.05-.25-8.95-1.45-15.25-2.1-9-3.9-17.2-3.1-14.25-16.45-27.8-4-4.1-8.85-7.95-3.85-2.9-3.85-3-1.7-8.8.8-12.9 2.1-3.4 7.65-4.05 3.05-.35 11.2.25 7.85.55 11.65-.05.6-16.2 1.95-24.55l-38.95-5.9z" id="W"/><path fill="#C59A70" d="M765.55 244.5q.4-10-.5-14.35-3.55-17.05-18.8-11.1-11.85 4.6-22.85 17.75-1.15 1.95-.15 4.5 1.05 2.65.15 4.35-2.25 4.4-2.95 6.05-1.55 3.7-1.55 6.15 0 12.55 5.55 22.95 7.7 14.45 22.9 13.6 11-.6 15.95-28.55 1.85-10.25 2.25-21.35z" id="X"/><path fill="#A57544" d="M749.8 247.45q-1.55-7.35-6.75-5.3-4.75 1.85-8.65 9.15-4.1 7.75-2.85 14.3 1.45 7.85 10.5 10.1 4.85-.25 7.05-12.55 1.85-10.5.7-15.7z" id="Y"/><path fill="#F3CBA9" d="M720.3 146.2q-10.65-11.45-29.55-17.95-16.65-5.75-42.7-8.5-12.55-1.8-29.95-7.35-26.75-8.55-27.8-8.85-15.45-4.2-27.25-4.05-14.65.2-28.1 6.9-27.05 19.55-47.05 96.3-1.75 10.2-7.25 35.25-3.65 16.75-4 25.45-.5 11.8 3.6 22.9 4.4 11.9 15.7 27.75 10.35 14.55 25.8 28.95 16.8 15.6 35 26.6 44.5 26.9 78 16 48.85-15.95 74.55-40.8 16.2-15.65 22.4-31.55 5-12.75 4.25-28.5-.15-3.05-3.35-27.8-2.25-17.2-.5-29.4 11.1-56.55-11.8-81.35z" id="Z"/><path fill="#E6B485" d="M720.3 146.2q-10.65-11.45-29.55-17.95-16.65-5.75-42.7-8.5-11.9-1.7-29.05-7.05l-43.75 6.55-59.75 36 6.8 9.5q13.7-10.7 41.95-14.6 26.7-3.7 57.65-.3 31.55 3.45 55.75 13.1 26.4 10.5 36.3 25.6 10.8 16.45 10.3 53.45-.2 13-1.85 30.65-.9 9.85-2.75 26.8-1.9 18.85-24.2 38.45-21.05 18.5-47.65 27.2-34.7 11.35-62.4 8.25-20.75-2.3-44.35-14.3 23.75 17.6 46.5 24.9 26.25 8.45 47.2 1.65 48.85-15.95 74.55-40.8 16.2-15.65 22.4-31.55 5-12.75 4.25-28.5-.15-3.05-3.35-27.8-2.25-17.2-.5-29.4 11.1-56.55-11.8-81.35z" id="aa"/><path fill="#BC8E61" d="M636.65 214.65q-2.15 7.55-3.15 15.75-1.85 14.35-.45 39.6.05 1.2 1.15 5.25 1.8 6.8 2.1 10.45.55 6.45-2.1 9.35-1.35 1.45-4 2.6-2.95 1.25-6.3 1.45-6 .45-10.6-2.75-.95-.65-2.1-.45-1.2.25-1.85 1.2-.65 1-.45 2.15.25 1.2 1.2 1.85 6.25 4.2 14.2 3.7 4.4-.3 8.5-2.1 3.65-1.65 5.6-3.8 4.05-4.4 3.65-12.4-.2-4.5-2.35-12.7-.95-3.6-.95-4.15-1.4-24.5.4-38.55 1.85-14.85 8.4-29.35.5-1.05.05-2.15-.4-1.1-1.5-1.6-1.05-.5-2.15-.05-1.1.4-1.6 1.45-3.55 7.9-5.7 15.25z" id="ab"/><path fill="#F3CBA9" d="M447.4 218.4q-.95 4.55-.55 15.15.45 11.65 2.35 22.5 5.2 29.45 16.8 30.1 16.05.9 24.15-14.35 5.85-10.95 5.85-24.15 0-2.6-1.65-6.5-.75-1.8-3.1-6.4-.9-1.75.15-4.55 1.05-2.7-.15-4.75-11.55-13.9-24.05-18.75-16.1-6.3-19.8 11.7z" id="ac"/><path fill="#E6B485" d="M744.5 219.45q1-2.8-2.6-2.7-7.2-.05-15.15-1.8-10.1-2.25-14.55-2.75-19.2-2-26.6-1.95-18.75.1-44.8 5.55-2.45.6-3.95.65-4.05.35-11.45.25-7.65-.5-11.4-1.15-1-.15-3.9-1-25.55-7.55-44.15-9.15-7.45-.65-26.75-.15-4.45.15-14.7 1.55-8.05 1.15-15.25.6-3.85-.45-4.5 5.85-.4 3.5-.35 10.7 0 .75 1.4 1.05 1.95.35 2.6.85 1.1.85 2 2.3 1.05 1.05 2.15 7.85.55 3.5 2 15.2.95 7.9 2.3 12.35 2.05 6.85 6.35 11.55 10.9 11.9 39.35 13.35 25.15.3 38.45-18.1 4.35-6.05 9.3-16.95 6.15-13.55 7.85-16.55 2.1-2.95 6.55-2.8 4.45.2 6.3 3.35 1.45 3.15 6.5 17.1 4.05 11.25 7.9 17.6 11.8 19.45 36.9 21.15 28.05.85 38.75-11.6 4-4.65 6.2-11.95.75-2.5 2.8-12.55 2.2-11.9 3.25-17.05 1.75-8.8 2.8-9.75 1.1-1.35 2.25-2.1.7-.5 2.6-.7 1.45-.15 1.55-.9-.05-1.7 2-7.2m-31.35.7q10.35 3.45 12.25 7.4 4.4 13.75 1.65 29.7-2.55 15-9.3 22-5.75 5.95-15.15 8.1-8.15 1.85-18.05.75-27.1-2.6-37.5-24.45-3.85-8.05-4.95-17.85-.85-7.7.1-14.15.35-7.55 14.3-12.1 13.15-4.3 30.8-3.7 14.5.45 25.85 4.3m-118.95-3.1q13.5 5.65 13.25 13.2.4 6.55-1.05 14.1-1.9 9.7-6.35 17.4-12.1 21-39.35 21.4-9.95.3-17.9-2.2-9.25-2.95-14.45-9.3-6.2-7.55-7.55-22.7-1.45-16.1 4.05-29.5 2.2-3.75 12.8-6.4 11.6-2.85 26.1-2.2 17.65.85 30.45 6.2z" id="ad"/><path fill="#C48E59" d="M470.55 231.05q-5.55-2.15-7.15 5.6-1.15 5.55.8 16.55 2.3 12.95 7.4 13.25 9.55-2.35 11.1-10.65 1.25-6.9-3.05-15.05-4.1-7.75-9.1-9.7z" id="ae"/><path fill="#DA642A" d="M652.15 324.95q10.3-3.8 6.55-3.4-6.7.7-14.45-2.3-7.15-3.45-8.65-4-.75-.15-2.7.9-2.5 1.35-3.7 1.7-5.35 1.6-10-4.9-2.1 1.1-4.45 2.3-4.7 2.4-8.9 3.15-6.05 1.1-19.2-1.8-11.35-2.5-14.6-4.35 5.6 6.15 14.1 9.5.45.2 15.55 5.25 8.7 2.9 10.9 5.3l27.25-2.4q.4-.55 12.3-4.95z" id="af"/><path fill="#DA642A" d="M574.25 296.1q.3-.65.05-1.35-.25-.7-.95-1-.65-.3-1.35-.05-.7.3-1 .95-.9 1.95-3.85 1.65-1.15-.1-2.45-.6-1.55-.65-1.9-1.45-.2-.7-.9-1-.7-.3-1.4-.05t-.95.95q-.3.65-.05 1.35.4 1.05 1.35 2.05 1 1 2.3 1.6 1.4.6 3.75.7 2.3.1 3.7-.4l.1-.05q2.45-.85 3.55-3.3z" id="ag"/><path fill="#DA642A" d="M672.3 320.35q.7-.3.95-1 .25-.65-.05-1.35-.3-.7-1-.95-.7-.3-1.35 0-1.95.85-3.95-1.35-.8-.85-1.35-2.1-.75-1.55-.45-2.35.25-.7-.05-1.4-.25-.7-.95-.95-.65-.25-1.35.05-.7.3-.95.95-.45 1.05-.4 2.45.1 1.45.65 2.75.6 1.4 2.25 3 1.65 1.65 3.05 2.25h.1q2.35 1.05 4.85 0z" id="ah"/><path fill="#3D3237" d="M650.6 328.75q1.787-5.795 3.85-7.1-3.735 2.143-22.55 4.25-22.6 2.5-37.15-.3-8.4-1.6-12.15-3.05-5.25-2.05-6.6-5.2-2.75 2.15 3.85 8.65 7 6.95 17.75 11.15 14.7 5.75 27.6 6 12.95.2 23-5.1 1.35-5.95 2.4-9.3z" id="ai"/><path fill="#FFF" d="M93.5 21.25q1.787-5.795 3.85-7.1-3.735 2.143-22.55 4.25-22.6 2.5-37.15-.3-8.4-1.6-12.15-3.05-5.25-2.05-6.6-5.2-2.75 2.15 3.85 8.65 7 6.95 17.75 11.15 14.7 5.75 27.6 6 12.95.2 23-5.1 1.35-5.95 2.4-9.3z" id="aj"/><path fill="#E5E2E2" d="M96.75 11.4q2.396-5.867 5-7.15Q97.036 6.427 72.7 8.5 43.65 11 24.95 8.2 14.15 6.6 9.3 5.15 2.55 3.15.85 0q-3.55 2.1 4.9 8.65 9.05 6.95 22.8 11.15 18.9 5.75 35.55 5.95 16.6.25 29.6-5.05 2.6-8.2 3.05-9.3z" id="al"/><path fill="#EF8347" d="M655.9 323.1q0-.75-1.85.2-1.95.95-2.2.1-1.75 3.3-4.35 6.25-2.8 3.15-5.6 4.65-9.7 5.3-21.95 4.65-12.65-.6-24.8-7.5-11.2-6.3-21.8-16.8.45 3.6 2.95 9.2 2.9 6.45 7.1 12.05 11.3 15.05 25.95 15.9 21.35 2.65 34.75-6.85 12.15-8.6 11.8-21.85z" id="am"/><path fill="#DA642A" d="M667.95 317.4l-4.45-1.75q-1 2.45-8.15 4.75-7.35 2.4-18.25 3.6-21.5 2.45-43.35-1.8-13.15-2.5-19.55-9.3-6-6.4-4.95-16.35l-4.8-.5q-1.25 12.1 6.25 20.1 7.4 7.95 22.15 10.8 11.6 2.2 23.65 2.65 10.95.35 21.1-.8 12.2-1.35 20.7-4.65 8.25-3.15 9.65-6.75z" id="an"/><path fill="#FFF" d="M720.75 244.45q.65-12.8-8.95-22.35-9.55-9.55-23.75-10.3-14.2-.7-24.7 7.85-10.5 8.55-11.15 21.35-.65 12.8 8.95 22.4 9.55 9.55 23.75 10.25 14.2.7 24.7-7.85 10.5-8.55 11.15-21.35z" id="ao"/><path fill="#F3CBA9" d="M694.25 196.25q-12.45-2.75-22.95.35-11.65 3.5-15.8 13.25 10.25-1.85 29.25.8 23.55 3.25 35.1 11.9 2.05-9.2-6-16.7-7.3-6.9-19.6-9.6z" id="ap"/><path fill="#1A1414" d="M699.7 241.15q0-7.3-5.2-12.55-5.2-5.2-12.55-5.2-7.35 0-12.55 5.2-5.2 5.25-5.2 12.55 0 7.35 5.2 12.6 5.2 5.2 12.55 5.2 7.35 0 12.55-5.2 5.2-5.25 5.2-12.6z" id="aq"/><path fill="#FFF" d="M673.2 230.7q-.45 1.3.15 2.55.6 1.25 1.9 1.7 1.3.45 2.55-.15 1.25-.6 1.7-1.9.45-1.3-.15-2.55-.6-1.25-1.9-1.7-1.3-.45-2.55.15-1.25.6-1.7 1.9z" id="ar"/><path fill="#F3CBA9" d="M657.45 284.6q7.9 1.75 26.2 4.2 2.65.5 7.55 1.95 4.4 1.3 6.7 1.65 7.5 1.05 15.95-3.9 1.8-8.35-7.2-15.45-8.15-6.5-21.5-9.35-13.5-2.9-24.6-.3-12.35 2.85-16.35 11.6-.4 6.5 13.25 9.6z" id="as"/><path fill="#FFF" d="M598.75 233.8q.65-12.85-8.9-22.4-9.6-9.55-23.8-10.25-14.2-.7-24.65 7.85-10.5 8.5-11.15 21.3-.65 12.8 8.9 22.4 9.6 9.55 23.8 10.25 14.2.7 24.65-7.8 10.5-8.55 11.15-21.35z" id="at"/><path fill="#1A1414" d="M575.05 242.4q5.2-5.2 5.2-12.55 0-7.35-5.2-12.55-5.25-5.2-12.55-5.2-7.35 0-12.55 5.2-5.25 5.2-5.25 12.55 0 7.35 5.25 12.55 5.2 5.2 12.55 5.2 7.3 0 12.55-5.2z" id="au"/><path fill="#FFF" d="M553.75 219.35q-.45 1.3.15 2.55.6 1.25 1.9 1.7 1.3.45 2.55-.15 1.25-.6 1.7-1.9.45-1.25-.15-2.5t-1.9-1.7q-1.3-.5-2.55.1-1.25.6-1.7 1.9z" id="av"/><path fill="#F3CBA9" d="M576.55 277.95q7.5 1.05 15.95-3.9 1.8-8.35-7.2-15.45-8.15-6.5-21.5-9.35-13.5-2.9-24.6-.3-12.35 2.85-16.35 11.6-.4 6.5 13.25 9.55 7.9 1.75 26.2 4.2 2.7.5 7.55 1.95 4.4 1.35 6.7 1.7z" id="aw"/><path fill="#F3CBA9" d="M698.15 194.25q-14-3.1-25.75.45-13.1 3.9-17.8 14.85 11.45-2.1 32.85.85 26.45 3.7 39.45 13.45 2.3-10.3-6.7-18.8-8.25-7.75-22.05-10.8z" id="ax"/><path fill="#BC5E39" d="M581.35 170.4q2.25-.55 3-2.8.65-2.05-.25-4.35-.95-2.45-3.05-3.55-2.4-1.3-5.45-.3-21.9 6.5-35.8 15.85-16.15 10.85-24.95 27.5-.65 1.05 1.3.85 2.05-.25 3.9-1.9 13.05-11.4 26.95-18.65 15.05-7.9 34.35-12.65z" id="ay"/><path fill="#BC5E39" d="M638.65 79.9q-11.4-19.45-28.4-24.45-43-12.65-83.7 3.9-34.1 13.85-57.5 43.4-19.3 24.35-17.6 52.85 1.4 23.3 15.8 43.9 12.7 18.15 25.7 22.4 6 2 9.25-.75 3.45-2.95 2.85-10.85-2.25-29.3 19.45-45.75 15.85-11.95 49.45-19.45 4.95-1.1 27.1-5.45 15.7-3.05 23.9-5.5 23.6-7.05 24.15-20.15-.45-17.05-10.45-34.1z" id="az"/><path fill="#A44A31" d="M590.45 51.2q14.6 15 12.65 30.85-1.7 13.7-15.55 26.8Q575.5 120.3 556.9 129q-17.05 8-32.75 10.65-14.35 2.45-22.5 33.35-3.35 12.55-4.55 26.5-1.2 13.4-.05 23.2 4.2.15 6.25-2.8 2.25-3.2 1.75-9.6-2.25-29.3 19.45-45.75 15.85-11.95 49.45-19.45 4.95-1.1 27.1-5.45 15.7-3.05 23.9-5.5 23.6-7.05 24.15-20.15-.45-17.05-10.45-34.1-11.4-19.45-28.4-24.45-9.85-2.95-19.8-4.25z" id="aA"/><path fill="#BC5E39" d="M716 72.5q-26.95-21.55-63.5-8.25-15.35 5.55-20.95 20.45-3.65 9.8-4.05 29.3.35 13.2 15.65 20.2 9.2 4.2 33.95 11 23.15 7.6 35.4 19.5 16.95 16.5 19.9 45.6 1.55 15.45 3.6 18.35 2.35 3.3 8.4-3.4 5.5-6.1 10.2-16.3 5.35-11.7 7.7-24.75 5.95-33.6-10-62.6-9.25-16.85-15.8-26.3-10-14.4-20.5-22.8z" id="aB"/><path fill="#A54B31" d="M677.1 145.2q23.15 7.6 35.4 19.5 16.95 16.5 19.9 45.6 1.55 15.45 3.6 18.35 2.35 3.3 8.4-3.4 3.45-3.95 6.55-9.3-.85-18.5-7.35-35.05-7.3-18.7-18.25-24.25-44-22.3-62.1-38.75-29.95-27.35-12.9-52.8-14 5.95-19.1 20.5-3.35 9.55-3.75 28.4.35 13.2 15.65 20.2 9.2 4.2 33.95 11z" id="aC"/><path fill="#BC5E39" d="M659.15 193.6q1.25 2 3.55 1.95 19.9-.3 36.45 3.45 15.3 3.5 30.85 11.2 2.2 1.1 4.25.8 1.95-.25 1.05-1.15-12.8-13.8-31.15-20.2-15.9-5.5-38.65-6.2-3.2-.2-5.2 1.65-1.75 1.65-2.05 4.2-.3 2.5.9 4.3z" id="aD"/><path fill="#FCBE35" d="M473.05 276.15q-2.05-.75-3.45 7.15-.75 4.25-1.75 11.25-1.35 5.45-3.2 10.1-1.55 3.9-1.65 4.65-.15 1.5 1.25 3.6.25.3 5.4 6.9 1.95 2.45 6.4-.45 3.75-2.45 5.6-5.45 1.95-3.25-1.5-19.7-3.5-16.7-7.1-18.05z" id="aE"/><path fill="#E3B905" d="M743.95 297.55q-.75 4.25-1.75 11.25-1.35 5.45-3.25 10.1-1.5 3.9-1.6 4.65-.2 1.55 1.25 3.6.25.4 5.4 6.95 1.95 2.45 6.4-.5 3.7-2.45 5.55-5.45 1.95-3.25-1.5-19.7-3.5-16.7-7.05-18.05-2.05-.75-3.45 7.15z" id="aF"/><path fill="#006D40" d="M491.9 221.9l27.05 2.4-.6-11.15L480.1 216l11.8 5.9z" id="aG"/><path fill="#006D40" d="M748.75 209.45q-7.5-.05-15.8-1.9-10.45-2.3-15.2-2.8-19.65-2.15-27.8-2.1-19.45.1-46.7 5.85-3.8.65-4.1.65-4.55.45-11.95.25-7.5-.45-11.9-1.2-.95-.15-4.05-1-26.7-7.9-46.1-9.55-7.95-.7-27.85-.15-4.75.1-15.35 1.6-8.45 1.15-15.9.6-4.05-.45-4.7 6.1-.4 3.65-.4 11.15.05.8 1.5 1.1 2 .35 2.7.9 1.15.9 2.1 2.4 1.1 1.15 2.25 8.2.7 4.4 2.05 15.85 1 8.25 2.4 12.85 2.2 7.15 6.65 12.05 11.35 12.45 41 13.95 26.25.3 40.15-18.9 4.5-6.3 9.7-17.65 6.45-14.1 8.2-17.25 2.2-3.1 6.8-2.95 4.65.2 6.55 3.5 1.55 3.3 6.8 17.85 4.25 11.75 8.3 18.35 12.25 20.25 38.45 22.05 29.65.9 42-10.6 4.85-4.5 7.6-11.45 1.75-4.5 3.4-12.65 2.3-11.55 3.3-15.6 1.7-6.95 2.9-8 1.05-1.35 2.35-2.25.7-.45 2.75-.65 1.45-.2 1.55-1 .65-7.5.55-11.15-.15-6.55-4.2-6.45M731.5 220.7q4.55 14.35 1.7 31-2.65 15.65-9.7 22.95-5.95 6.2-15.8 8.45-8.45 1.9-18.8.8-28.25-2.7-39.15-25.55-4-8.4-5.15-18.6-.85-8 .1-14.75.35-7.85 14.9-12.6 13.7-4.5 32.15-3.9 15.1.5 27 4.45 10.75 3.65 12.75 7.75m-124.15 17.6q-1.95 10.05-6.6 18.1-12.65 21.9-41.05 22.3-10.4.3-18.65-2.3-9.65-3.05-15.1-9.65-6.45-7.9-7.85-23.65-1.5-16.8 4.2-30.8 2.35-3.95 13.35-6.7 12.1-3 27.25-2.3 18.45.9 31.75 6.5 14.1 5.9 13.8 13.75.45 6.8-1.1 14.75z" id="aH"/><path fill="#FFF" d="M431.9 307.4v-31.65H304.7v31.65h127.2z" id="aI"/><path fill="url(#a)" d="M173.4 63.2l.1-1.45H59.7v1.45h113.7z" id="aK"/><path fill="url(#b)" d="M174 34.7q0-1-.1-1.45H62.55v1.45H174z" id="aL"/><path fill="url(#c)" d="M43.75 0h-.5l-.55.1q-2 .35-4.1 1.4-4.45 2.15-6.8 6.5-1.25 2.1-1.55 4.7-.2 1.45 0 2.85 2.5.2 4.95-.8 2.5-1.05 4.55-3.35 1.6-1.75 2.65-3.95 1-1.9 1.25-4.25.1-1.05.1-3.2z" id="aM"/><path fill="url(#d)" d="M31.3 68.25q-13.75-.15-26.6-5.1 6.95 11.1 19.7 14.05 12.75 2.95 23.85-3.95 5.9-3.7 9.7-9.55-12.9 4.7-26.65 4.55M63 46.6q0-5-1.5-9.75-14 7.9-30 8.1-16.05.25-30.25-7.2Q0 42 0 46.6q0 .75.35 4.95 6.7 3.35 14.9 4.8 7.05 1.25 16.1 1.25 16.65 0 31.45-7.45.2-1.55.2-3.55m-9-22q-5.1-5.2-12.1-7.65-5 2-10.45 2-5.4 0-10.45-1.95-7.35 2.55-12.6 8.3 10.7 5.7 22.9 5.5 12.1-.2 22.7-6.2z" id="aN"/><path fill="url(#e)" d="M10.85 29.85Q6.8 34.8 1.2 38-.65 44.8.4 51.55q11.9-4.1 19.95-13.95 8.15-9.75 10-22.4h-.3q-6.95.3-13.05 3.5-2.05 6.15-6.15 11.15m42.8-5.6q-5-4.9-11.55-7.25-2.45 15.8-12.7 28.2Q19.35 57.4 4.45 62.75q3.7 6.2 9.85 10.2 15.05-6.65 25.4-19.2Q50.25 41.05 54 24.6l-.35-.35M63 45.15q-.2-4.3-1.6-8.5-4.8 15-13.2 25.2Q39.5 72.4 27.05 77.7q2.5.4 5.95.3 13-.55 21.8-10.2 8.75-9.6 8.2-22.65z" id="aO"/><path fill="#1F6395" d="M74.75 49.2q1.45-1 1.8-4.15.4-4.6-2.25-4.6h-6.05L66.5 57.4h2.25l.65-6.25h2.8q1.2 0 .9 3-.3 1.75-.1 3.3h2.4q-.2-1.9 0-3.7.5-4.2-.65-4.55m-5-1.2l.4-4.25h2.9q1.2 0 1 2.1-.2 2.15-1.3 2.15h-3m83.85 4.5v-.1q.1-.65.75-.55.65 0 .65.85h1.2q.1-2.2-1.65-2.2-1.8 0-2 2.15-.2 1.6.85 1.85l.9.3q.4.1.5.25.05.1.05.4v.05q-.05.3-.3.5t-.55.15q-.65 0-.65-.95l-1.2.05q-.15 2.25 1.65 2.25 1.95 0 2.2-2.2.15-1.75-1.2-2l-.75-.15q-.45-.1-.45-.65M120 40.45h-5.65L112.6 57.5h2.25l.65-6.1h3.5q2.75 0 3.4-5.8.45-5.15-2.4-5.15m-4.2 7.85l.5-4.75h2.65q.65 0 .85.3.35.55.2 2.1-.15 1.55-.7 2.05-.3.3-1.05.3h-2.45m-11.05-4.6h3.1l-1.4 13.8h2.25l1.45-13.8h3.1l.3-3.25h-8.45l-.35 3.25m-6.35 3.5l.35-3.5h5.55l.3-3.25h-7.8L95.05 57.5h7.85l.35-3.25h-5.6l.4-3.95h5.25l.35-3.1H98.4m-7.3-7.3q-4.15 0-4.7 5.35-.25 2.4.5 3.55.55.9 1.85 1.3l2 .65q.7.25 1 .65.3.45.2 1.35-.2 2.1-2 2.1-2.15 0-1.85-2.75h-2.55q-.35 3.55 1.05 4.95 1 .9 3 .9 4.4 0 4.95-5.7.4-3.95-2.2-4.8l-2.7-.95q-.95-.25-.8-1.55.1-.85.55-1.45.5-.55 1.2-.55.85 0 1.3.4.6.55.55 2.05l2.5-.05q.4-5.45-3.85-5.45m-5.45 3.8l.35-3.25h-7.8L76.4 57.5h7.85l.3-3.25H79l.4-3.95h5.25l.35-3.1h-5.25l.35-3.5h5.55m66.2-3.25h-2.3l-1 9.8q-.4 4.45-2.55 4.45-2.2 0-1.65-4.45l1-9.8h-2.3L141.9 51.4q-.2 2.6.2 4 .75 2.55 3.5 2.55 4.4 0 5.1-6.6l1.15-10.9M139.7 49.2q1.4-.95 1.8-4.15.4-4.6-2.25-4.6h-6.05l-1.75 16.95h2.3l.65-6.25h2.8q1.2 0 .9 3-.3 1.75-.1 3.3h2.35q-.2-1.9 0-3.7.5-4.2-.65-4.55m-5.05-1.2l.45-4.25h2.9q1.2 0 1 2.1-.25 2.15-1.35 2.15h-3m-3.75-.8h-5.25l.4-3.5h5.5l.35-3.25h-7.8l-1.7 17.05h7.8l.35-3.25H125l.35-3.95h5.25l.3-3.1z" id="aP"/><path fill="#1F6395" d="M155.75 57.1h1.15l.2-2H156l-.25 2m6.6.15q-.05-.7 0-1.3l.3-3.25q.3-2.2-1.55-2.2-1.75 0-2.1 2.2l1.05.05q.15-.65.4-.85.15-.15.55-.15.8 0 .75.8-.15.65-.5.65l-1.15.15q-1.3.2-1.55 2-.2 2.15 1.2 2.15 1 0 1.6-.95v.7h1M161.6 54l-.1.55q-.05.75-.5 1.25-.4.4-.75.4-.7 0-.6-.95.15-.8.65-.85l.65-.1q.35 0 .65-.3z" id="aQ"/><path fill="#1F6395" d="M163.65 55.1h-1.15l-.2 2h1.1l.25-2m4.75-2l1.1.05q0-2.65-1.7-2.65-2.1 0-2.45 3.5-.35 3.5 1.65 3.5 1.8 0 2.3-2.85h-1.05q-.25 1.35-1 1.35-1 0-.85-2 .25-2 1.25-2 .75 0 .75 1.1z" id="aR"/><path id="p" stroke="#F3CBA9" stroke-width=".15" stroke-miterlimit="22" fill="none" d="M211.112 199.224q.929-1.185 1.474-3.145.516-1.884.266-2.826-4.467-2.584-9.907-3.617-1.445-.167-2.52 2.173-1.077 2.325-.414 3.905 8.742 3.602 11.101 3.51z"/><path id="aJ" stroke="#39C" stroke-linejoin="round" stroke-linecap="round" fill="none" d="M304.7 275.75h127.2v31.65H304.7v-31.65z"/></defs><use xlink:href="#f" transform="matrix(.29485 0 0 .3039 -11.85 15.8)"/><use xlink:href="#g" transform="matrix(.29485 0 0 .3039 -11.85 15.8)"/><use xlink:href="#h" transform="matrix(.29485 0 0 .3039 -11.85 15.8)"/><use xlink:href="#i" transform="matrix(.29485 0 0 .3039 -11.85 15.8)"/><g transform="matrix(.29485 0 0 .3039 162.85 148.7)"><mask id="k"><use xlink:href="#j"/></mask><g mask="url(#k)"><use xlink:href="#l"/></g></g><use xlink:href="#m" transform="matrix(.29485 0 0 .3039 -11.85 15.8)"/><use xlink:href="#n" transform="matrix(.29485 0 0 .3039 -11.85 15.8)"/><g transform="matrix(.29485 0 0 .3039 -11.85 15.8)"><use xlink:href="#o"/><use xlink:href="#p" transform="matrix(3.3916 0 0 3.29045 40.15 -51.95)"/></g><use xlink:href="#q" transform="matrix(.29485 0 0 .3039 -11.85 15.8)"/><use xlink:href="#r" transform="matrix(.29485 0 0 .3039 -11.85 15.8)"/><use xlink:href="#s" transform="matrix(.29485 0 0 .3039 -11.85 15.8)"/><use xlink:href="#t" transform="matrix(.29485 0 0 .3039 -11.85 15.8)"/><use xlink:href="#u" transform="matrix(.29485 0 0 .3039 -11.85 15.8)"/><use xlink:href="#v" transform="matrix(.29485 0 0 .3039 -11.85 15.8)"/><use xlink:href="#w" transform="matrix(.29485 0 0 .3039 -11.85 15.8)"/><use xlink:href="#x" transform="matrix(.29485 0 0 .3039 -11.85 15.8)"/><use xlink:href="#y" transform="matrix(.29485 0 0 .3039 -11.85 15.8)"/><use xlink:href="#z" transform="matrix(.29485 0 0 .3039 -11.85 15.8)"/><use xlink:href="#A" transform="matrix(.29485 0 0 .3039 -11.85 15.8)"/><use xlink:href="#B" transform="matrix(.29485 0 0 .3039 -11.85 15.8)"/><use xlink:href="#C" transform="matrix(.29485 0 0 .3039 -11.85 15.8)"/><use xlink:href="#D" transform="matrix(.29485 0 0 .3039 -11.85 15.8)"/><use xlink:href="#E" transform="matrix(.29485 0 0 .3039 -11.85 15.8)"/><use xlink:href="#F" transform="matrix(.29485 0 0 .3039 -11.85 15.8)"/><use xlink:href="#G" transform="matrix(.29485 0 0 .3039 -11.85 15.8)"/><use xlink:href="#H" transform="matrix(.29485 0 0 .3039 -11.85 15.8)"/><use xlink:href="#I" transform="matrix(.29485 0 0 .3039 -11.85 15.8)"/><use xlink:href="#J" transform="matrix(.29485 0 0 .3039 -11.85 15.8)"/><use xlink:href="#K" transform="matrix(.29485 0 0 .3039 -11.85 15.8)"/><use xlink:href="#L" transform="matrix(.29485 0 0 .3039 -11.85 15.8)"/><use xlink:href="#M" transform="matrix(.29485 0 0 .3039 -11.85 15.8)"/><use xlink:href="#N" transform="matrix(.29485 0 0 .3039 -11.85 15.8)"/><use xlink:href="#O" transform="matrix(.29485 0 0 .3039 -11.85 15.8)"/><use xlink:href="#P" transform="matrix(.29485 0 0 .3039 -11.85 15.8)"/><use xlink:href="#Q" transform="matrix(.29485 0 0 .3039 -11.85 15.8)"/><use xlink:href="#R" transform="matrix(.29485 0 0 .3039 -11.85 15.8)"/><use xlink:href="#S" transform="matrix(.29485 0 0 .3039 -11.85 15.8)"/><use xlink:href="#T" transform="matrix(.29485 0 0 .3039 -11.85 15.8)"/><use xlink:href="#U" transform="matrix(.29485 0 0 .3039 -11.85 15.8)"/><use xlink:href="#V" transform="matrix(.29485 0 0 .3039 -11.85 15.8)"/><use xlink:href="#W" transform="matrix(.29485 0 0 .3039 -11.85 15.8)"/><use xlink:href="#X" transform="matrix(.29485 0 0 .3039 -11.85 15.8)"/><use xlink:href="#Y" transform="matrix(.29485 0 0 .3039 -11.85 15.8)"/><use xlink:href="#Z" transform="matrix(.29485 0 0 .3039 -11.85 15.8)"/><use xlink:href="#aa" transform="matrix(.29485 0 0 .3039 -11.85 15.8)"/><use xlink:href="#ab" transform="matrix(.29485 0 0 .3039 -11.85 15.8)"/><use xlink:href="#ac" transform="matrix(.29485 0 0 .3039 -11.85 15.8)"/><use xlink:href="#ad" transform="matrix(.29485 0 0 .3039 -11.85 15.8)"/><use xlink:href="#ae" transform="matrix(.29485 0 0 .3039 -11.85 15.8)"/><use xlink:href="#af" transform="matrix(.29485 0 0 .3039 -11.85 15.8)"/><use xlink:href="#ag" transform="matrix(.29485 0 0 .3039 -11.85 15.8)"/><use xlink:href="#ah" transform="matrix(.29485 0 0 .3039 -11.85 15.8)"/><use xlink:href="#ai" transform="matrix(.29485 0 0 .3039 -11.85 15.8)"/><g transform="matrix(.29485 0 0 .3039 152.3 109.25)"><mask id="ak"><use xlink:href="#aj"/></mask><g mask="url(#ak)"><use xlink:href="#al"/></g></g><use xlink:href="#am" transform="matrix(.29485 0 0 .3039 -11.85 15.8)"/><use xlink:href="#an" transform="matrix(.29485 0 0 .3039 -11.85 15.8)"/><use xlink:href="#ao" transform="matrix(.29485 0 0 .3039 -11.85 15.8)"/><use xlink:href="#ap" transform="matrix(.29485 0 0 .3039 -11.85 15.8)"/><use xlink:href="#aq" transform="matrix(.29485 0 0 .3039 -11.85 15.8)"/><use xlink:href="#ar" transform="matrix(.29485 0 0 .3039 -11.85 15.8)"/><use xlink:href="#as" transform="matrix(.29485 0 0 .3039 -11.85 15.8)"/><use xlink:href="#at" transform="matrix(.29485 0 0 .3039 -11.85 15.8)"/><use xlink:href="#au" transform="matrix(.29485 0 0 .3039 -11.85 15.8)"/><use xlink:href="#av" transform="matrix(.29485 0 0 .3039 -11.85 15.8)"/><use xlink:href="#aw" transform="matrix(.29485 0 0 .3039 -11.85 15.8)"/><use xlink:href="#ax" transform="matrix(.29485 0 0 .3039 -11.85 15.8)"/><use xlink:href="#ay" transform="matrix(.29485 0 0 .3039 -11.85 15.8)"/><use xlink:href="#az" transform="matrix(.29485 0 0 .3039 -11.85 15.8)"/><use xlink:href="#aA" transform="matrix(.29485 0 0 .3039 -11.85 15.8)"/><use xlink:href="#aB" transform="matrix(.29485 0 0 .3039 -11.85 15.8)"/><use xlink:href="#aC" transform="matrix(.29485 0 0 .3039 -11.85 15.8)"/><use xlink:href="#aD" transform="matrix(.29485 0 0 .3039 -11.85 15.8)"/><use xlink:href="#aE" transform="matrix(.29485 0 0 .3039 -11.85 15.8)"/><use xlink:href="#aF" transform="matrix(.29485 0 0 .3039 -11.85 15.8)"/><use xlink:href="#aG" transform="matrix(.29485 0 0 .3039 -11.85 15.8)"/><use xlink:href="#aH" transform="matrix(.29485 0 0 .3039 -11.85 15.8)"/><use xlink:href="#aI"/><use xlink:href="#aJ"/><use xlink:href="#aK" transform="matrix(1.21838 0 0 1.35852 263.6 99.65)"/><use xlink:href="#aL" transform="matrix(1.21838 0 0 1.35852 263.6 99.65)"/><use xlink:href="#aM" transform="matrix(1.21838 0 0 1.35852 263.6 99.65)"/><use xlink:href="#aN" transform="matrix(1.21838 0 0 1.35852 263.6 99.65)"/><use xlink:href="#aO" transform="matrix(1.21838 0 0 1.35852 263.6 99.65)"/><use xlink:href="#aP" transform="matrix(1.21838 0 0 1.35852 263.6 99.65)"/><use xlink:href="#aQ" transform="matrix(1.21838 0 0 1.35852 263.6 99.65)"/><use xlink:href="#aR" transform="matrix(1.21838 0 0 1.35852 263.6 99.65)"/><g transform="translate(266.9 212.25)"><clipPath id="aS"><path fill="#FFF" d="M-2-2h237.2v45.9H-2z"/></clipPath><text clip-path="url(#aS)" writing-mode="lr"><tspan x="0" y="16.05" baseline-shift="0%" font-family="Times New Roman" font-size="18">Disculpa pagina no se </tspan><tspan x="0" y="38" baseline-shift="0%" font-family="Times New Roman" font-size="18">encontro, puede volver al inicio.</tspan></text></g><g transform="translate(339.05 283.05)"><clipPath id="aT"><path fill="#FFF" d="M-2-2h60.2v23.95H-2z"/></clipPath><text clip-path="url(#aT)" writing-mode="lr"><tspan x="0" y="16.05" baseline-shift="0%" font-family="Times New Roman" font-size="18">INICIO</tspan></text></g></svg>