<svg data-name="Capa 1" xmlns="http://www.w3.org/2000/svg" xmlns:xlink="http://www.w3.org/1999/xlink" viewBox="0 0 174 78"><defs><radialGradient id="a" cx="140.82" cy="94.56" r="40.49" gradientTransform="matrix(1.37 0 0 2.39 -19.13 -125.23)" gradientUnits="userSpaceOnUse"><stop offset="0" stop-color="#93d0e4"/><stop offset=".43" stop-color="#00a5d4"/><stop offset=".98" stop-color="#006293"/></radialGradient><radialGradient id="b" cx="141.85" cy="79.26" r="39.76" xlink:href="#a"/><radialGradient id="c" cx="101.99" cy="61.76" r="4.34" gradientTransform="matrix(1.69 0 0 1.68 -98.94 -57.94)" xlink:href="#a"/><radialGradient id="d" cx="105.17" cy="95.68" r="18.7" gradientTransform="matrix(1.69 0 0 1.68 -98.94 -57.94)" gradientUnits="userSpaceOnUse"><stop offset="0" stop-color="#ddeff4"/><stop offset="1" stop-color="#07b1d3"/></radialGradient><radialGradient id="e" cx="90.22" cy="78.01" r="17.76" gradientTransform="matrix(1.69 0 0 1.68 -98.94 -57.94)" xlink:href="#a"/></defs><path d="M209.53 99.72H95.74v1.44h113.68q.06-.72.11-1.44z" transform="translate(-36 -38)" fill="url(#a)" fill-rule="evenodd"/><path d="M209.93 63.22H98.57v1.44H210c0-.49 0-.97-.07-1.44z" transform="translate(-36 -38)" fill="url(#b)" fill-rule="evenodd"/><path d="M79.75 38c0 1.06 0 2.13-.08 3.19a11.79 11.79 0 0 1-1.25 4.25 16.8 16.8 0 0 1-2.67 3.95 13.27 13.27 0 0 1-4.53 3.34 10.19 10.19 0 0 1-4.94.78 10.24 10.24 0 0 1 0-2.82A12.48 12.48 0 0 1 67.81 46a15.15 15.15 0 0 1 6.82-6.52 14.65 14.65 0 0 1 4.11-1.39l.55-.1z" transform="translate(-36 -38)" fill="url(#c)" fill-rule="evenodd"/><path d="M147.08 32.22a3.45 3.45 0 0 1-.85-.11l-.34-.09v-.35a11.58 11.58 0 0 1 .19-2 5 5 0 0 0-.06-1.39 3.8 3.8 0 0 1 .11-2.1c.86-1.85 2.72-2.94 4.08-3.73l.23-.14a5 5 0 0 1 2-.77h.34l.63.08-.12 1.09c-.05.5-.1 1-.17 1.49a12 12 0 0 1-.82 2.88 13.17 13.17 0 0 1-1.4 2.59 6.73 6.73 0 0 1-2.23 2.13 3.25 3.25 0 0 1-1.59.42z" fill="#1f6395" fill-rule="evenodd"/><path d="M152.69 22h.19c-.08.71-.14 1.42-.24 2.13a11.55 11.55 0 0 1-.79 2.77 12.68 12.68 0 0 1-1.35 2.5 6.37 6.37 0 0 1-2.08 2 2.79 2.79 0 0 1-1.34.35 3 3 0 0 1-.74-.1 11.38 11.38 0 0 1 .18-1.89c.19-1.1-.41-2.45 0-3.37.85-1.82 2.81-2.89 4.14-3.67a4.55 4.55 0 0 1 1.78-.71h.23m0-.91h-.3a5.38 5.38 0 0 0-2.17.83l-.23.14c-1.41.83-3.35 2-4.27 3.93a4.2 4.2 0 0 0-.15 2.34 4.6 4.6 0 0 1 .06 1.26 12.22 12.22 0 0 0-.2 2v.7l.68.17a3.9 3.9 0 0 0 1 .12 3.7 3.7 0 0 0 1.77-.46 7.17 7.17 0 0 0 2.39-2.27 13.61 13.61 0 0 0 1.45-2.68 12.43 12.43 0 0 0 .85-3c.07-.51.13-1 .18-1.52 0-.21 0-.42.07-.64l.1-.88-.88-.12h-.32z" fill="#fff"/><path d="M90 62.56a31.58 31.58 0 0 0-12.06-7.63A28.94 28.94 0 0 1 57 55a31.57 31.57 0 0 0-12.6 8.27 47.33 47.33 0 0 0 45.6-.71zm7.5 12.28a62.95 62.95 0 0 1-60.22.89A31.22 31.22 0 0 0 36 84.59c0 1.24.25 3.74.39 4.94 9.44 4.68 19.86 6.06 31 6.06a70.09 70.09 0 0 0 31.44-7.46 31.78 31.78 0 0 0 .2-3.55 31.24 31.24 0 0 0-1.52-9.74zm-56.78 26.3a31.6 31.6 0 0 0 53.27.53 75.91 75.91 0 0 1-53.27-.53z" transform="translate(-36 -38)" fill="url(#d)" fill-rule="evenodd"/><path d="M99 83.14a31.38 31.38 0 0 0-1.59-8.51c-2.88 9.12-7.25 18-13.18 25.21a56.26 56.26 0 0 1-21.18 15.85A31.84 31.84 0 0 0 69 116a31.46 31.46 0 0 0 30-32.86zM56.39 75.6a45.46 45.46 0 0 0 10-22.41h-.34A31.52 31.52 0 0 0 53 56.69 34.91 34.91 0 0 1 37.2 76a31.39 31.39 0 0 0-.8 13.53A45.17 45.17 0 0 0 56.39 75.6zm19.32 16.15A69.72 69.72 0 0 0 90 62.59l-.31-.34A31.62 31.62 0 0 0 78.11 55a57.55 57.55 0 0 1-12.7 28.15 57.22 57.22 0 0 1-24.95 17.56 31.6 31.6 0 0 0 9.88 10.22 69.26 69.26 0 0 0 25.37-19.18z" transform="translate(-36 -38)" fill="url(#e)" fill-rule="evenodd"/><path d="M67.21 36.52h6c2.27 0 2.36 2.86 2.18 4.58-.21 2.05-.75 3.37-1.75 4.06.94.31.83 2.85.66 4.51a11.59 11.59 0 0 0 0 3.66h-2.43a12.11 12.11 0 0 1 .12-3.23c.24-2.36-.19-2.95-.88-2.95h-2.77l-.64 6.18h-2.23zM68.67 44h2.95c.49 0 1.13-.57 1.29-2.15s-.43-2.1-1-2.1h-2.83zM77 36.52h7.65l-.33 3.21h-5.43l-.36 3.49h5.15l-.32 3.07h-5.15l-.4 3.87h5.47L83 53.37h-7.7zm14 4.89c.09-2.19-.91-2.43-1.8-2.43s-1.6.85-1.72 2c-.09.9.22 1.39.78 1.58l2.69.92c1.44.5 2.46 1.65 2.14 4.72s-1.62 5.66-4.84 5.66c-2 0-4.54-.52-4-5.78h2.5c-.22 2.31.87 2.71 1.83 2.71s1.82-.64 2-2.1c.13-1.3-.33-1.65-1.19-1.93l-2-.64c-1.38-.45-2.66-1.32-2.31-4.77.39-3.75 2-5.29 4.61-5.29 1.69 0 4.13.59 3.79 5.36zm4.28-4.89h7.65l-.33 3.21h-5.43l-.36 3.49H102l-.32 3.07h-5.15l-.4 3.87h5.47l-.33 3.21h-7.7zm10.84 3.21h-3l.33-3.21h8.31l-.33 3.21h-3l-1.41 13.64h-2.23zm6.37-3.21H118c2.33 0 2.6 2.86 2.36 5.12-.37 3.59-1.51 5.71-3.31 5.71h-3.45l-.62 6h-2.23zm1.42 7.76h2.39c.69 0 1.5 0 1.73-2.31s-.41-2.38-1-2.38h-2.63zm8.09-7.76h7.65l-.33 3.21h-5.43l-.36 3.49h5.15l-.32 3.07h-5.15l-.4 3.87h5.47l-.28 3.21h-7.7zm9 0h6c2.27 0 2.36 2.86 2.18 4.58-.21 2.05-.75 3.37-1.75 4.06.94.31.83 2.85.66 4.51a11.6 11.6 0 0 0 0 3.66h-2.43a12.15 12.15 0 0 1 .12-3.23c.24-2.36-.19-2.95-.88-2.95h-2.8l-.64 6.18h-2.23zm1.43 7.48h2.95c.49 0 1.13-.57 1.29-2.15s-.43-2.1-1-2.1h-2.83zm8.23-7.48h2.23l-1 9.67c-.17 1.65-.42 4.44 1.62 4.44s2.36-2.78 2.54-4.44l1-9.67h2.23l-1.12 10.81c-.2 1.89-.79 6.51-5 6.51s-3.83-4.63-3.63-6.51zm10.09 14.6c0 .55.14.91.67.91a.73.73 0 0 0 .81-.7c0-.36 0-.5-.52-.65l-.91-.26c-.63-.18-1-.6-.84-1.82.18-1.74 1.08-2.16 1.93-2.16 1.44 0 1.68 1 1.63 2.17h-1.12c0-.66-.31-.85-.61-.85a.66.66 0 0 0-.74.68c0 .3 0 .5.46.6l.7.16c1 .23 1.29.86 1.18 2-.2 1.91-1.26 2.17-2.16 2.17-1.18 0-1.71-.71-1.61-2.23zm3.33-.05h1.13l-.21 2h-1.13zm2.25-2.42c.33-2 1.24-2.21 2.08-2.21 1.47 0 1.68 1 1.56 2.18l-.33 3.19a6 6 0 0 0 0 1.29h-1a5.26 5.26 0 0 1 0-.68 1.81 1.81 0 0 1-1.56.92c-.82 0-1.33-.59-1.17-2.09s.87-1.89 1.5-2l1.11-.16c.32 0 .44-.16.49-.67s-.13-.77-.73-.77c-.44 0-.67.07-.91 1zm2.51 1.35a1.14 1.14 0 0 1-.64.28l-.61.11c-.37.06-.57.26-.63.84s.17.9.55.9 1.15-.52 1.26-1.6zm1.72 1.07h1.13l-.21 2h-1.13zm4.97-2.02c0-.85-.32-1.13-.74-1.13-.64 0-1.08.71-1.21 2s.17 2 .8 2c.45 0 .85-.5 1-1.31h1.06c-.42 2.28-1.27 2.8-2.29 2.8-1.18 0-1.87-1-1.62-3.45s1.18-3.46 2.42-3.46c.79 0 1.67.49 1.64 2.62z" fill="#1f6395"/></svg>