
<svg xmlns="http://www.w3.org/2000/svg" version="1.1" xmlns:xlink="http://www.w3.org/1999/xlink" preserveAspectRatio="none" x="0px" y="0px" width="550px" height="400px" viewBox="0 0 550 400">
<defs>
<radialGradient id="Gradient_1" gradientUnits="userSpaceOnUse" cx="0" cy="0" r="55.462500000000006" fx="0" fy="0" gradientTransform="matrix( 0.9999999999999999, 0, 0, 1.7446472842010365, 137.75,62.8) " spreadMethod="pad">
<stop  offset="0%" stop-color="#93D0E4"/>

<stop  offset="43.13725490196079%" stop-color="#00A5D4"/>

<stop  offset="98.03921568627452%" stop-color="#006293"/>
</radialGradient>

<radialGradient id="Gradient_2" gradientUnits="userSpaceOnUse" cx="0" cy="0" r="39.75" fx="0" fy="0" gradientTransform="matrix( 1.0000000000000002, 0, 0, 1.0000000000000002, 105.85,44.65) " spreadMethod="pad">
<stop  offset="0%" stop-color="#93D0E4"/>

<stop  offset="43.13725490196079%" stop-color="#00A5D4"/>

<stop  offset="98.03921568627452%" stop-color="#006293"/>
</radialGradient>

<radialGradient id="Gradient_3" gradientUnits="userSpaceOnUse" cx="0" cy="0" r="7.325000000000003" fx="0" fy="0" gradientTransform="matrix( 0.9999999999999997, 0, 0, 0.9931740614334468, 37.4,7.85) " spreadMethod="pad">
<stop  offset="0%" stop-color="#93D0E4"/>

<stop  offset="43.13725490196079%" stop-color="#00A5D4"/>

<stop  offset="98.03921568627452%" stop-color="#006293"/>
</radialGradient>

<radialGradient id="Gradient_4" gradientUnits="userSpaceOnUse" cx="0" cy="0" r="31.599999999999994" fx="0" fy="0" gradientTransform="matrix( 1.0000000000000002, 0, 0, 0.9940664556962028, 42.75,64.85) " spreadMethod="pad">
<stop  offset="0%" stop-color="#DDEFF4"/>

<stop  offset="100%" stop-color="#07B1D3"/>
</radialGradient>

<radialGradient id="Gradient_5" gradientUnits="userSpaceOnUse" cx="0" cy="0" r="29.987499999999997" fx="0" fy="0" gradientTransform="matrix( 1.0000000000000002, 0, 0, 0.9941642350979576, 17.5,35.15) " spreadMethod="pad">
<stop  offset="0%" stop-color="#93D0E4"/>

<stop  offset="43.13725490196079%" stop-color="#00A5D4"/>

<stop  offset="98.03921568627452%" stop-color="#006293"/>
</radialGradient>

<g id="Layer1_0_MEMBER_0_FILL">
<path fill="#BC5E39" stroke="none" d="
M 716.5 344.45
Q 723.85 339.85 724.15 335.2 724.5 329.65 714.5 325.65 695.1 317.95 692.55 319.25 691.1 319.95 696.3 325.6 701.1 330.8 698.4 330.8 694.1 330.85 671.5 321.05 661.4 316.65 654.2 324.35 651.45 327.35 650.05 331.35 648.7 335.1 649.2 337.85 649.55 339.6 655.4 342.05 660.7 344.25 660.15 344.6 658.1 346.05 653.45 345.6 647.9 344.8 645.05 344.75 634.4 344.7 631.95 358.35 630.8 364.85 619.2 343.15 613.35 331.95 611.15 327.7 607.35 320.6 607 321.3 605.9 323.35 601.95 323 601.55 323 593.65 321.55 581.55 319.4 577.9 326.15 573.75 333.85 591.35 369.05 595.45 377.25 603.75 392.6 609.4 403.1 609.1 403.4 600.7 388.5 591.45 373.15 572.9 342.3 566.9 342.25 546.95 342.15 543.05 358.85 539.75 372.7 547.85 395.4 554.85 415.1 566.4 431.7 577.8 448.1 583.75 447.45
L 583.4 444.4
Q 590.3 446.35 608.7 450.05 628.3 454.05 633.65 455.4 650.85 459.85 667.2 457.7 681.8 455.8 692.8 449.15 703.2 442.85 706.85 434.65 710.65 426.2 705.75 419.1 699.55 410.05 699.4 404.7 699.35 400.5 703.25 397.2 705.55 395.3 711.05 391.45 715.65 387.5 716.7 382.15 718.15 374.65 713.05 365.5 708.55 357.45 704.65 356 702.45 355.2 702.1 354.9 701.5 354.35 702.5 353.45 703.35 352.7 716.5 344.45 Z"/>
</g>

<g id="Layer1_0_MEMBER_1_FILL">
<path fill="#BC5E39" stroke="none" d="
M 788.4 284.45
L 790.15 287.1
Q 782.3 288.1 762.1 292 740.55 296.2 734.55 297.05 715.25 299.85 699.7 308.3 685.8 315.9 677.6 326.4 669.9 336.3 669.8 345.3 669.7 354.55 677.7 359.1 687.8 364.85 685.25 369.8 683.45 373.35 673.25 378.15 659.05 384.9 656.45 386.55 648.35 391.85 649.7 397.35 651.5 404.8 660.7 411.15 668.75 416.75 673.3 416.5 675.9 416.35 676.4 416.5 677.25 416.7 676.6 418 676.1 419.05 666.4 431.8 664.15 434.8 667.35 438.75 670.3 442.3 676.95 445.75 691.7 453.35 705.05 453 706.15 452.95 708.45 453.85 712.85 455.5 713.1 455.6 719.8 457.8 725.3 456.05 726.85 455.55 731.2 455.35 734.8 455.2 735.7 454.35 740.3 450.15 734.75 445.9 732.55 444.25 723.95 440.3 721.4 439.1 721.15 438.6 720.75 437.95 723.4 437.7 728.6 437.3 753.2 438.5 770.4 439.35 773.05 428.85 774.05 424.75 772.4 420 770.9 415.55 767.8 412.55 766.1 410.85 760.95 410 756.3 409.45 756.4 409.25 757.85 407.05 764.9 406.15 768.95 405.6 778.5 404.65 786.65 403.35 790.15 400.25 794.7 396.25 792.7 388.55 791.05 382.15 785.9 377.5 783.45 375.5 782.65 374.75 781.3 373.55 781.35 372.75 781.55 370.45 784.7 369.2 784.95 369.1 791.6 367.25 801.65 364.4 802.35 356.8 803.15 348.05 792.55 341.1 790 339.4 785.25 337 782 335.35 782.15 334.95 782.35 334.5 783.7 336.1 786.5 337.65 792.9 336.35 806.45 333.6 813.5 328.25 820.7 322.75 819.6 315.75 817.85 304.6 806.6 292.9 801.5 287.65 796.8 285.3 791.7 282.75 788.4 284.45 Z"/>
</g>

<g id="Layer1_0_MEMBER_2_MEMBER_0_FILL">
<path fill="#BC8E61" stroke="none" d="
M 781.1 530.95
Q 782.9 528.5 777.15 525.1 771.35 521.75 765.75 522.1 763.6 526.75 758.95 536.45 754.5 545.6 752.15 550.75
L 766.55 559.25
Q 772.35 549.1 774.3 545.35 778.45 537.6 781.1 530.95 Z"/>
</g>

<g id="Layer1_0_MEMBER_2_MEMBER_1_MEMBER_0_MEMBER_0_FILL">
<path fill="#0061A0" stroke="none" d="
M 792.6 476.45
L 678.75 437.25 607 609.6 723.65 650.6 792.6 476.45 Z"/>
</g>

<g id="Mask_de_dibujos_animados_secretaria_de_sexo_femenino_by_Vexels_svg_Layer_1__Clip_Group__0_2_MASK_0_FILL">
<path fill="#FFFFFF" stroke="none" d="
M 85.9 0
L 14.15 172.35 130.8 213.35 199.75 39.2 85.9 0 Z"/>
</g>

<g id="de_dibujos_animados_secretaria_de_sexo_femenino_by_Vexels_svg_Layer_1__Clip_Group__0_Layer2_0_MEMBER_0_FILL">
<path fill="#2E3F5A" stroke="none" d="
M 71.75 2.75
L 0 175.1 116.65 216.1 185.6 41.95 71.75 2.75 Z"/>
</g>

<g id="Layer1_0_MEMBER_2_MEMBER_2_FILL">
<path fill="#F3CBA9" stroke="none" d="
M 741.65 537.35
Q 737.1 536.85 733.75 544 730.4 551.05 732.5 555.85 759.5 566.8 767.2 566.5 770.1 562.9 771.8 556.9 773.4 551.25 772.65 548.35 758.6 540.5 741.65 537.35 Z"/>
</g>

<g id="Layer1_0_MEMBER_2_MEMBER_3_FILL">
<path fill="#F3CBA9" stroke="none" d="
M 720.35 558.55
Q 716.7 566.15 718.95 571.4 748.5 583.2 756.65 582.95 759.75 579 761.55 572.55 763.3 566.4 762.5 563.3 747.5 554.85 728.9 551.35 724 550.85 720.35 558.55 Z"/>
</g>

<g id="Layer1_0_MEMBER_2_MEMBER_4_FILL">
<path fill="#F3CBA9" stroke="none" d="
M 719.95 579.15
Q 716.3 586.8 718.55 592 748.2 603.85 756.2 603.55 759.35 599.65 761.2 593.2 762.95 587 762.1 583.9 746.95 575.4 728.5 572 723.6 571.45 719.95 579.15 Z"/>
</g>

<g id="Layer1_0_MEMBER_2_MEMBER_5_FILL">
<path fill="#B4B4B4" stroke="none" d="
M 737.95 462.65
Q 737.2 464.8 737.3 467 737.4 468.35 737.95 470.9 738.35 472.55 738.45 473.6 738.8 476 742 486.25 745.15 496.4 748.75 506.6 754.1 521.7 756.8 525.7
L 757.2 526.2
Q 757.6 526.75 758 526.9 760.35 528.6 768.9 531.4
L 770.35 531.85 771.6 528.4 770 527.9
Q 768.8 527.5 764 526.35 760.25 525.45 760.3 525.25
L 760.4 523.7 758.85 523.35
Q 758.45 523.3 752.2 505.4 748.65 495.25 745.55 485.4 742.4 475.35 742.1 473.1 742.05 472.75 741.5 470.15 741.05 468.2 741 467.2 740.85 465.65 741.3 464.25 741.7 463.8 742.5 462.5
L 743.4 461 743.65 457.35
Q 742.25 457.25 741.15 458.3 740.45 458.9 739.4 460.6 738.65 461.75 738.5 461.85
L 738.15 462.2 737.95 462.65 Z"/>
</g>

<g id="Layer1_0_MEMBER_3_FILL">
<path fill="#843E2C" stroke="none" d="
M 655 530.55
Q 658.75 543.15 668.1 570.3 677.5 597.7 681.55 611.2 688.3 633.65 690.8 649.65 691.5 654.25 696.3 658.4 702 663.25 703.15 665.7 703.9 665.6 704.7 665.45 705.15 665.25 705.2 664.1
L 705.55 659.6
Q 706.65 643.85 692.5 594.5 692.1 593 681.05 555.5 674.65 533.85 672.35 523.8 671.4 519.6 657.1 487.7 644.727734375 460.12890625 644.05 454.2 644.2974609375 460.9708984375 643.4 464.75 642.85 466.95 641.7 469.45 640.45 473.6 646.5 492.35
L 646.9 495.55
Q 648.7 509.5 655 530.55 Z"/>
</g>

<g id="Layer1_0_MEMBER_4_FILL">
<path fill="#AA3930" stroke="none" d="
M 741.5 638.6
Q 742.95 627.55 741.35 625.55 737.15 620.2 705.5 612.3 688 608.1 679.8 606.15 665.25 602.65 658.75 600.55
L 649.1 597.35
Q 648.3 597.4 647.85 599.65 643.15 600.8 648.45 652.15 649.55 663.15 652.65 689.75 654.85 708.65 654.9 711.8 667 715.05 672.25 716.05 680.25 717.6 686.35 717.15 699.15 716.2 716.85 704.05 727.5 696.75 736.55 662.8 740.1 649.55 741.5 638.6 Z"/>
</g>

<g id="Layer1_0_MEMBER_5_FILL">
<path fill="#7F361D" stroke="none" d="
M 638.35 1098.75
Q 630.35 1098.45 625.7 1098.75 617.1 1099.3 615.1 1102.5 610.3 1110.15 608.9 1114.65 606.8 1121.35 609.1 1127.75 611.3 1132.35 625.9 1136.1 638.65 1139.35 657 1141.15 674.25 1142.8 687.2 1142.35 700.9 1141.85 701.6 1139.2 703.7 1133.05 694.05 1126.85 687.35 1122.55 671.65 1116.65 651.85 1109.15 648.35 1107.55 637.8 1102.65 638.35 1098.75 Z"/>
</g>

<g id="Layer1_0_MEMBER_6_FILL">
<path fill="#1A1414" stroke="none" d="
M 642.4 1108.85
Q 641.05 1110.25 633.2 1111.35 624.7 1112.5 624 1112.85 624.05 1113.05 624.2 1113.15 624.3 1113.2 624.35 1113.45 625.55 1118.8 649.6 1123.3 659.15 1125.05 666.65 1125.45 674.55 1125.85 675.55 1124.4 678.2 1121.85 662 1115.55 651.95 1111.65 642.4 1108.85 Z"/>
</g>

<g id="Layer1_0_MEMBER_7_FILL">
<path fill="#9D4C2C" stroke="none" d="
M 560.6 1103.4
Q 551.5 1103.95 549.3 1107.4 544.2 1115.6 542.7 1120.35 540.45 1127.6 542.9 1134.35 545.25 1139.25 560.85 1143.25 574.45 1146.75 594.05 1148.65 612.45 1150.45 626.35 1149.95 641 1149.45 641.7 1146.6 643.9 1140 633.65 1133.4 626.45 1128.8 609.65 1122.5 588.5 1114.5 584.8 1112.8 573.55 1107.6 574.15 1103.4 565.6 1103.1 560.6 1103.4 Z"/>
</g>

<g id="Layer1_0_MEMBER_8_FILL">
<path fill="#393235" stroke="none" d="
M 558.8 1118.45
Q 558.85 1118.65 559 1118.75 559.15 1118.85 559.2 1119.1 560.45 1124.85 586.15 1129.6 596.35 1131.5 604.4 1131.9 612.85 1132.3 613.9 1130.75 616.7 1128.1 599.45 1121.35 589.05 1117.3 578.5 1114.15 577 1115.7 568.65 1116.85 559.55 1118.1 558.8 1118.45 Z"/>
</g>

<g id="Layer1_0_MEMBER_9_FILL">
<path fill="#1A1414" stroke="none" d="
M 678.7 669.4
Q 678.6 655.45 678.85 651.25 665.4 649.85 638.8 644.35 612.2 638.85 598.7 637.45 607.2 765.05 612.6 877.3 619.95 1029.4 619.8 1117.2 625 1120.15 634.35 1120.1 642.65 1120.1 646.55 1118.2 646.65 1081.45 651.55 1022.9 654.5 987.75 662.35 912.5 670.15 837.25 673.1 802.1 678 743.6 678.1 706.8 678.85 685.65 678.7 669.4 Z"/>
</g>

<g id="Layer1_0_MEMBER_10_FILL">
<path fill="#393235" stroke="none" d="
M 612.6 716.45
Q 634.6 694.15 640.7 685.5 649.3 673.25 655.9 651.4 642.4 650 590.6 648.35 538.75 646.65 525.25 645.25 523.95 688.45 528.7 754.95 531.8 798.65 539.9 880.85 549 972.4 551.8 1007.2 557.35 1075.05 557.25 1118.35
L 583 1117.6
Q 583.1 1080.85 587.7 1023.9 590.45 989.75 597.8 917.05 605.15 844.3 607.9 810.15 612.5 753.25 612.6 716.45 Z"/>
</g>

<g id="Layer1_0_MEMBER_11_FILL">
<path fill="#1A1414" stroke="none" d="
M 557.4 647.15
Q 535.1 646.25 525.25 645.25 523.95 688.45 528.7 754.95 531.8 798.65 539.9 880.85 549 972.4 551.8 1007.2 557.35 1075.05 557.25 1118.35
L 583 1117.6 583 1116.7
Q 567.55 984.4 567.05 871.65 566.3 708.2 599.8 648.6 564.75 647.45 557.4 647.15 Z"/>
</g>

<g id="Layer1_0_MEMBER_12_FILL">
<path fill="#AA3930" stroke="none" d="
M 612.85 691.45
Q 630.6 690.25 643.15 688.4 682.65 682.55 680.25 669.4 660.6 675.15 606.05 675.85 553.55 676.5 533.1 672.25 523.5 670.2 523.9 677.95 524.15 681.8 526.35 686.15 531.55 689.9 558.45 691.9 582.45 693.7 592.85 692.7 596.3 692.35 612.85 691.45 Z"/>
</g>

<g id="Layer1_0_MEMBER_13_FILL">
<path fill="#BC5E39" stroke="none" d="
M 725.4 175.65
Q 711.15 189.35 706.8 193.1 693.35 204.75 685.85 219.4 679.15 232.5 678.35 245.35 677.65 257.45 682.3 265.15 687.1 273.05 695.7 273.05 706.7 273.1 711.2 276.05 714.7 278.35 715.15 283.45 715.45 286.4 715.45 293.15 716.1 299.2 719.9 303.1 725.25 308.55 735.7 309.55 744.9 310.45 748.25 308 750.2 306.65 750.65 306.5 751.4 306.3 751.6 307.7 751.75 308.9 751.05 324.3 750.65 332.95 754.35 335.9 758.7 339.35 767.65 333.35 785 321.8 785.4 318.95 785.6 317.35 778 318.45 771 319.45 772.5 317.2 774.95 313.65 795.85 300.65 805.25 294.8 802.95 284.55 802.1 280.55 799.6 277.1 797.25 273.9 794.7 272.75 793.1 272 787.75 275.45 782.95 278.55 782.95 277.9 782.9 275.4 785.9 271.85 787.6 269.8 791.4 265.4 797.45 256.65 787.65 246.9 783 242.3 778.6 241.35 776.65 241.1 776 240.95 774.95 240.75 774.6 240.05 773.55 238 774.65 235.2 774.8 234.9 777.55 229.85 781.8 222.05 778.35 215.25 774.4 207.5 768.65 204.65 763.8 203.25 763.6 202.45 763.5 202 765.3 202.4 767.95 201.95 771.35 197.05 782.75 180.7 781.65 168.85 780.75 159 771.7 153.9 763.85 149.45 754.2 150.4 744.6 151.3 741.75 156.6
L 744.45 158
Q 739 162.5 725.4 175.65 Z"/>
</g>

<g id="Layer1_0_MEMBER_14_FILL">
<path fill="#BC5E39" stroke="none" d="
M 438.3 361.8
L 439.55 358.85
Q 435.85 357.65 431.1 361.05 426.75 364.2 422.55 370.4 413.3 384.2 413.65 395.85 413.85 403.2 422.3 407.65 430.55 412 444.95 412.65 451.75 413 454.3 410.95 455.55 410 455.7 409.55 455.9 409.95 452.9 412.15 448.55 415.35 446.25 417.45 436.7 426.3 439.2 435.1 441.4 442.8 452.25 444.1 459.3 444.95 459.65 445 463.15 445.8 463.8 448.15 464 448.95 462.85 450.4 461.15 452.35 460.1 453.7 455.7 459.3 455.25 466.1 454.7 474.3 460.1 477.7 464.3 480.3 472.9 480.35 477.75 480.35 487.1 479.7 494.5 479.5 496.4 481.5 494.4 482.15 491.85 483 486.75 484.7 485.35 486.7 482.8 490.25 482.1 495.05 481.3 500.2 483.15 504.25 487.85 514.6 505.3 510.95 530.3 505.8 535.65 505.4 538.4 505.2 538.15 505.95 538 506.5 535.6 508.1 527.55 513.5 525.65 515.6 520.8 520.85 526.25 524.4 530.55 527.2 543.85 523 550.6 520.9 557.4 518.1 569.2 516.6 567.75 508.85 566.65 502.9 558.85 495.55 546.55 484.05 545.8 483.05 544.9 481.85 545.7 481.45 546.2 481.25 548.9 481 553.6 480.55 560.75 473.5 568.9 465.55 569.35 457.6 569.65 451.95 565.65 446.85 560.55 441.6 558.55 439.1 555.05 434.8 556.3 430.6 557.9 425.2 567.25 417.6 574.6 411.65 572.75 402.2 570.9 393 561.1 384.1 550.7 374.7 535 369.15 517.4 362.95 497.1 363.15 490.75 363.2 467.95 362.35 446.5 361.55 438.3 361.8 Z"/>
</g>

<g id="Layer1_0_MEMBER_15_FILL">
<path fill="#BC5E39" stroke="none" d="
M 701.7 341.6
Q 697.25 333.55 693.35 332.15 691.1 331.3 690.75 331 690.15 330.5 691.15 329.55 692 328.75 705.15 320.55 712.5 316 712.85 311.3 713.2 305.75 703.15 301.75 683.75 294.05 681.2 295.35 679.8 296.05 685 301.7 689.8 306.95 687.1 306.95 682.8 306.95 660.2 297.15 650.05 292.75 642.9 300.45 640.1 303.5 638.7 307.45 637.4 311.25 637.9 313.95 638.2 315.7 644.1 318.15 649.35 320.35 648.85 320.7 646.8 322.15 642.15 321.7 636.6 320.9 633.75 320.85 623.1 320.8 620.65 334.45 619.5 340.95 607.85 319.25 602.05 308.05 599.8 303.8 596 296.7 595.65 297.4 594.6 299.45 590.65 299.1 590.25 299.1 582.3 297.65 570.2 295.5 566.6 302.25 562.45 309.95 580.05 345.15 584.2 353.5 592.45 368.7 598.1 379.2 597.8 379.5 589.4 364.6 580.15 349.25 561.6 318.4 555.6 318.35 535.65 318.25 531.75 334.95 528.45 348.8 536.5 371.5 543.55 391.25 555.05 407.8 566.45 424.2 572.45 423.55
L 572.05 420.5
Q 578.9 422.45 597.4 426.2 616.85 430.1 622.35 431.55 639.55 436 655.9 433.8 670.55 431.9 681.5 425.25 691.9 418.95 695.55 410.75 699.35 402.3 694.45 395.2 688.2 386.15 688.1 380.8 688 376.6 691.95 373.35 694.25 371.4 699.75 367.55 704.35 363.6 705.4 358.25 706.8 350.75 701.7 341.6 Z"/>
</g>

<g id="Layer1_0_MEMBER_16_FILL">
<path fill="#BC5E39" stroke="none" d="
M 448.2 356.3
Q 444.6 370.2 453.45 392.9 461.15 412.6 473.85 429.2 486.45 445.6 493 444.95
L 492.55 441.9
Q 500.15 443.85 520.45 447.55 542.05 451.55 547.95 452.9 566.9 457.35 584.85 455.2 600.95 453.3 613.05 446.65 624.45 440.35 628.45 432.15 632.6 423.7 627.25 416.6 620.4 407.55 620.25 402.15 620.2 398 624.5 394.7 627 392.75 633.1 388.9 638.15 384.95 639.3 379.6 640.9 372.1 635.25 362.95 630.35 354.9 626.05 353.5 623.6 352.7 623.2 352.4 622.55 351.85 623.65 350.95 624.55 350.2 639.05 341.95 647.15 337.4 647.5 332.65 647.85 327.1 636.85 323.15 615.5 315.45 612.7 316.75 611.1 317.45 616.8 323.1 622.1 328.3 619.1 328.3 614.4 328.3 589.55 318.5 578.4 314.1 570.5 321.85 567.45 324.85 565.95 328.85 564.5 332.6 565.05 335.35 565.4 337.1 571.85 339.5 577.65 341.7 577.1 342.1 574.85 343.55 569.75 343.1 563.6 342.3 560.45 342.25 548.75 342.2 546.05 355.85 544.75 362.35 531.95 340.65 525.55 329.45 523.1 325.2 518.95 318.1 518.55 318.8 517.35 320.85 513 320.5 512.55 320.5 503.85 319.05 490.55 316.9 486.55 323.6 482 331.3 501.35 366.55 505.9 374.75 515 390.05 521.2 400.55 520.9 400.9 520.7 401.1 514.85 391.65 506.55 378.3 501.45 370.6 481.05 339.8 474.45 339.75 452.5 339.65 448.2 356.3 Z"/>
</g>

<g id="Layer1_0_MEMBER_17_FILL">
<path fill="#BC5E39" stroke="none" d="
M 405 265.85
L 405.7 265.5
Q 401 263.4 393.95 268.65 386.85 273.95 382.95 282.6 378.55 292.4 381.1 301.35 384.15 311.95 396.65 318.95 402.35 322.15 405.2 320.8 405.9 320.45 406.5 319.75 406.85 319.3 406.95 319.5 407.25 320.4 403.5 324.55 399.85 330.6 400.65 340.2 401.35 348.65 414.35 351.75 422.95 353.85 423.3 353.95 427.4 355.35 427.6 357.9 427.7 358.8 425.4 360.15 422.1 361.95 420.05 363.2 411.9 368.25 410.25 375.35 406.75 390.3 417.4 394.95 420.25 396.2 426.2 397.8 431.05 399.4 432.45 401.8 432.8 402.4 426.6 402.3 419.65 402.2 418.6 403.8 416.9 406.35 416.6 410.75 416.25 415.45 417.7 419.75 421.5 430.75 433.55 430.75 460.4 430.75 464.7 432.65 467.4 433.9 460.35 437.05 452.7 440.5 453.85 441.85 455.85 444.25 478.55 445 490.3 445.4 492.35 439.6 494.1 434.7 488.75 426.8 479.15 412.65 478.65 411.5 478 410.05 478.85 409.8 479.35 409.65 481.95 409.8 486.45 410.15 494.4 403.95 503.5 396.85 505.3 388.6 506.5 383.2 505.9 376.65 505.25 369.15 505.45 367.35 505.9 362.55 509.65 358.1 514.1 352.85 524.45 346.25 532.35 341.25 530.15 330.95 528 321.1 517.55 310.05 506.7 298.5 490.85 290.05 473.35 280.65 454.1 277.55 447.75 276.5 429.8 271.65 412.5 266.9 405 265.85 Z"/>
</g>

<g id="Layer1_0_MEMBER_18_MEMBER_0_MEMBER_0_FILL">
<path fill="#BC5E39" stroke="none" d="
M 502.45 114.75
Q 499.15 105.35 497.7 102.65 494.6 96.95 489.95 95.35 479.15 103.7 475.7 109.15 472.9 113.6 474.05 118.2 474.75 121 477.35 127.6 479.3 134.5 478 142.45 477.25 147.1 465.9 148.45 452.1 149.1 446.85 149.35 429.7 150.2 428.8 164.4 428.2 174 434.15 185.3 435.35 187.55 432.45 188.3 430.7 188.7 424.85 188.8 411.8 188.95 409.5 192.55 401.45 205.2 410.35 216.15 412.5 218.8 417.9 223.55 422.15 227.3 422.7 228.95 424.1 232.9 422.85 235.45 421.9 237.35 418.85 239.25 413.65 242.55 413.25 242.85 410.05 245.35 408.65 248.65 403.35 261.3 413.25 267.55 416.5 269.55 421.65 271.05 424.35 271.85 428.1 272.75 429 273.05 426.9 273.95 423.55 275.3 421.4 276.25 412.25 280.25 411.35 284.6 410.3 289.95 416.4 296.5 419.75 300.1 426.1 305.85 432.35 313.1 430.15 315.35 427.95 317.7 418.4 312.55 417.25 313 423.5 318.1 430.05 323.45 440.4 330.4 467.6 348.65 491.95 358.7 523.85 371.85 538.2 364.55 556 355.5 544.3 315.2 538.9 296.6 542.95 267.35 544.1 258.75 547.2 242.25 550.4 225.25 551.55 217.45 555.6 189.05 550.4 172.15 543.55 150.15 519.75 138.25 512.85 134.8 508.4 127.9 505.45 123.3 502.45 114.75 Z"/>
</g>

<g id="Layer1_0_MEMBER_19_FILL">
<path fill="#A44A31" stroke="none" d="
M 679.6 392.55
Q 687.35 392.55 714.65 372.3 741.9 352.1 747.5 342.25 748.3 340.85 758.5 324.05 763.8 315.3 766.05 309.65 771.75 295.55 769.2 271.7
L 471.7 270.45
Q 471.7 297.6 479 322.8 488.05 353.95 505.35 368.1 545.8 401.15 515.2 435.75 504.6 447.65 485.3 459.85 478 464.45 457.85 475.45 462.8 475.45 473 476.55 478.8 477.2 491.3 478.6 514.35 480.9 521.05 477.7 539.05 469.1 573.3 476.95 585.1 479.65 601.7 485 610.85 487.95 626.9 493.25 650.5 500.6 660.2 492.5 667.8 486.15 668.95 467 669.3 461.7 669.35 448.9 669.45 436.35 669.9 429.45 671.4 406 679.6 392.55 Z"/>
</g>

<g id="Layer1_0_MEMBER_20_FILL">
<path fill="#DC8B53" stroke="none" d="
M 634.95 680.25
Q 634.95 679.65 617.8 681.05 600.8 682.45 599.75 682.9 599.75 687.15 598.3 693.8 598 698.15 603.3 697.3 605.05 697 613.7 696.2 620.4 695.55 624.1 694.5 635.25 691.3 634.95 680.25 Z"/>
</g>

<g id="Layer1_0_MEMBER_21_FILL">
<path fill="#6598D1" stroke="none" d="
M 667.8 590.45
Q 661.85 536.3 657.75 504.65 652.1 461.2 648.6 448.7 638.2 411.7 612.85 405.3 604.2 403.15 592.45 404.3 580.25 406.15 575.7 406.55 572 406.9 566 440.1 562.4 459.95 554.55 513.05 546.8 565.9 543.15 585.95 537.1 619.15 533.4 619.5 533.25 621.4 531.6 624.25 529.35 628.15 528.15 631.6 523.25 645.65 523.15 678.2 534.15 683.25 556.5 685.75 577.7 688.15 602.8 687.6 628.4 687.1 649.5 683.7 672.3 680.05 683.8 673.95 683.25 667.05 676.55 637.3 669.55 606.3 667.8 590.45 Z"/>
</g>

<g id="Layer1_0_MEMBER_22_FILL">
<path fill="#3A7BBE" stroke="none" d="
M 649.5 683.7
Q 672.3 680.05 683.8 673.95 683.45 669.75 682 662.3 681 657.3 678.7 646.85 674.25 644.15 673.95 643.95 671.1 641.85 668.1 642.7 666.15 643.3 662.4 646.15 657.9 649.6 655.55 650.85 651.05 653.25 646.25 653.4 617.05 654.45 607.6 640.45 599.45 628.4 603.85 600.45 608.65 569.95 609.75 555.95 610.9 541.35 610.9 510.65 610.9 497.15 612.2 493.45 614.15 487.8 618.95 504.9 622.85 518.7 626 517.9 628.6 517.25 628.95 509.8 629.65 492 633.75 479.3 640.1 459.7 651.15 473.55
L 645 437.95
Q 633.65 409.05 610.05 404.7 602 403.2 591.2 404.45 579.95 406.15 575.7 406.55 572 406.9 566 440.1 562.4 459.95 554.55 513.05 546.8 565.9 543.15 585.95 537.1 619.15 533.4 619.5 533.25 621.4 531.6 624.25 529.35 628.15 528.15 631.6 523.25 645.65 523.15 678.2 534.15 683.25 556.5 685.75 577.7 688.15 602.8 687.6 628.4 687.1 649.5 683.7 Z"/>
</g>

<g id="Layer1_0_MEMBER_23_FILL">
<path fill="#F3CBA9" stroke="none" d="
M 477.85 622.35
Q 461.95 618.45 466.6 626.6
L 465.75 715 487.15 713.55 498.25 633.25 494.65 627.9
Q 485.75 624.3 477.85 622.35 Z"/>
</g>

<g id="Layer1_0_MEMBER_24_FILL">
<path fill="#F3CBA9" stroke="none" d="
M 476.9 685.25
Q 474.65 687.75 472.1 690.75 469.5 693.75 467.25 696.2 466.75 705.95 460.9 733.65 455.75 758.1 456.55 769.75 458.7 772.7 461.6 772.3 465.6 771.75 467.85 763.8 468 766.8 468.35 775.25 470.7 776.65 473.9 776.95 477.65 777.25 479.15 775.45 479.35 764.2 481 757.45 481.25 759.3 483.2 764.8 485.15 770.2 485.4 772.1 487.9 773.15 492.4 771.85 497.4 770.4 496.75 767.2 496.15 759.65 494.05 746.55 492 733.6 491.4 725.85 494.05 730.1 496.25 732.85 498.65 735.9 502.05 739.2 504.25 738.95 506.85 734.4 509.55 729.7 508.25 727.35
L 476.9 685.25 Z"/>
</g>

<g id="Layer1_0_MEMBER_25_FILL">
<path fill="#1A1414" stroke="none" d="
M 685.55 469.9
Q 680.55 462.2 663.9 446.4 644.7 428.2 633.75 414.5 627.95 407.25 624.7 407.15 624 407.15 622.9 407.65 622.647265625 407.76796875 622.4 407.8 624.8287109375 410.1328125 633.1 430.6 642.6 454.1 643.55 459.55 648.5 489.35 649 531.4 649.3 555.8 647.7 601.15 646.35 640.6 647.05 653.4 648.15 673.75 654.35 672.65 664.8 670.8 674.5 666.6 682.05 663.3 685.6 660.4 683.7 651.35 679.85 634 676.65 619.55 675.65 614.4 671.7 594 671.6 585 671.4 569.9 677.3 543.5 690.65 515.3 692.15 497.95 693.55 482.3 685.55 469.9 Z"/>
</g>

<g id="Layer1_0_MEMBER_26_FILL">
<path fill="#393235" stroke="none" d="
M 588.05 430.75
Q 583.5 423.1 582.55 421.4 579.35 417.1 578.2 412.65 577.3 409.35 577.45 405.05
L 533.75 437.35
Q 541.75 471.8 544.5 496.35 547.35 522.05 545.45 545.45 543.65 567.95 536.8 595.25 531.05 618.1 518.65 656.2 518.85 663.85 534.5 668.8 550.05 673.75 571.4 673.15 577.55 672.95 585.1 643.75 592.25 616 597.3 576.2 602.6 534.35 602.7 500.45 602.85 462 596 446.4 592.8 439.05 588.05 430.75 Z"/>
</g>

<g id="Layer1_0_MEMBER_27_FILL">
<path fill="#241D1E" stroke="none" d="
M 588.3 431.2
Q 583.5 423.15 582.55 421.4 579.7 417.55 578.45 413.65 577.5 410.5 577.45 406.75
L 576 406.15 533.75 437.35
Q 541.5 470.75 544.3 494.75 547.25 519.9 545.7 542.55 544.2 564.5 538 590.4 532.7 612.7 521.4 647.85
L 521.55 662
Q 527.05 667.4 540.7 670.5 554.55 673.65 571.4 673.15 575.6 673 580.7 658.45 585.5 644.8 590.1 621.4 583.6 608.2 578.25 582.55 572.65 555.7 570.9 527.55 569 495.85 572.75 471.9 577 444.4 588.3 431.2 Z"/>
</g>

<g id="Layer1_0_MEMBER_28_FILL">
<path fill="#50494E" stroke="none" d="
M 551.7 473.7
Q 552 460.95 546.2 448.55 540.35 435.95 534.1 436.6 523.65 453.7 496.2 493.9 473.45 528.65 471.2 542.15 466.7 565.2 465.6 589.55 465.1 600.75 465.15 633.05 476.25 633.7 476.6 633.75 485.6 634.85 497.95 639.05 498.65 630.35 499.2 615.75
L 500.15 591.45
Q 501.45 562.9 505.15 551.85 508.05 540.55 524.4 515.5 543.95 486.75 551.7 473.7 Z"/>
</g>

<g id="Layer1_0_MEMBER_29_FILL">
<path fill="#9A9B9B" stroke="none" d="
M 452.85 620.2
L 454 643.5 517.05 646.2 506.9 616.15 452.85 620.2 Z"/>
</g>

<g id="Layer1_0_MEMBER_30_FILL">
<path fill="#5C332A" stroke="none" d="
M 735.6 631.15
Q 735.3 628.5 729 628.7 723.35 628.85 720.15 630.45 720.05 630.55 719.05 643.75 717.6 659.25 715.1 669.6 712.1 682.1 706.6 695.55 703.9 702.2 701.7 706.9 706.2 707.05 710.1 703 713.9 699.1 718.05 690.3 721.15 684.35 728.1 663.15 736.35 638.25 735.6 631.15 Z"/>
</g>

<g id="Layer1_0_MEMBER_31_FILL">
<path fill="#CDCBCA" stroke="none" d="
M 587.6 428.1
Q 579.3 409.65 576.7 405.4 576.05 404.35 573.35 405.25 570.5 406.2 568 408.6 561.05 415.2 564.55 424.85 564.6 425.1 568.15 452.35 572.2 479.65 574.45 480.35 576.55 481 578.85 478.7 580.2 477.35 583.35 472.8 590.3 462.65 596.35 460.2 596.8 459.95 598.85 459.8 600.75 459.65 601.15 459.7 595.85 446.45 587.6 428.1 Z"/>
</g>

<g id="Layer1_0_MEMBER_32_FILL">
<path fill="#9A9B9B" stroke="none" d="
M 659.4 459.55
Q 664.65 462.1 669.4 466 669.4 459.65 663.7 448.8 658.55 438.9 650.45 428.5 642.4 418.15 635.15 412.1 627.3 405.5 623.5 406.6 620.7 407.4 622.45 411.85 622.8 412.7 626.05 418.55
L 626.5 419.3
Q 631.05 427.45 645 461 649.05 454.45 659.4 459.55 Z"/>
</g>

<g id="Layer1_0_MEMBER_33_FILL">
<path fill="#D9A36E" stroke="none" d="
M 600.75 353.35
Q 593.4 351.2 589.5 351.15 584.15 351.05 582.25 354.4 579.25 359.6 579.1 381.05 579 399.35 580.45 410.5 580.65 412.15 588.55 422.7 598.65 436.05 603.7 444.6 609.95 455.15 617.35 476.85 621.1 487.8 624.55 498.5 626.15 501.55 626.05 481.5 625.95 460.9 623.95 443.7 622.85 434.1 619.3 421.45 616.1 410 616.1 409.8 616.75 392.25 617.5 382.7 618.85 365.65 622.9 357.7 619.55 358.5 612.95 356.9 604.85 354.5 600.75 353.35 Z"/>
</g>

<g id="Layer1_0_MEMBER_34_FILL">
<path fill="#C78C51" stroke="none" d="
M 579.75 366.25
Q 578.85 376.15 579.2 390.6 579.5 403.4 580.45 410.5 580.65 412.15 588.55 422.7 598.65 436.05 603.7 444.6 610.8 456.65 619.95 484.65 619.7 475.7 618.5 469.4 616.4 460.4 614.6 452.2 611.5 437.95 598.15 424.4 594.15 420.3 589.3 416.45 585.45 413.55 585.45 413.45 583.75 404.65 586.25 400.55 588.35 397.15 593.9 396.5 596.95 396.15 605.1 396.75 612.95 397.3 616.75 396.7 617.35 380.5 618.7 372.15
L 579.75 366.25 Z"/>
</g>

<g id="Layer1_0_MEMBER_35_FILL">
<path fill="#C59A70" stroke="none" d="
M 765.55 244.5
Q 765.95 234.5 765.05 230.15 761.5 213.1 746.25 219.05 734.4 223.65 723.4 236.8 722.25 238.75 723.25 241.3 724.3 243.95 723.4 245.65 721.15 250.05 720.45 251.7 718.9 255.4 718.9 257.85 718.9 270.4 724.45 280.8 732.15 295.25 747.35 294.4 758.35 293.8 763.3 265.85 765.15 255.6 765.55 244.5 Z"/>
</g>

<g id="Layer1_0_MEMBER_36_FILL">
<path fill="#A57544" stroke="none" d="
M 749.8 247.45
Q 748.25 240.1 743.05 242.15 738.3 244 734.4 251.3 730.3 259.05 731.55 265.6 733 273.45 742.05 275.7 746.9 275.45 749.1 263.15 750.95 252.65 749.8 247.45 Z"/>
</g>

<g id="Layer1_0_MEMBER_37_FILL">
<path fill="#F3CBA9" stroke="none" d="
M 720.3 146.2
Q 709.65 134.75 690.75 128.25 674.1 122.5 648.05 119.75 635.5 117.95 618.1 112.4 591.35 103.85 590.3 103.55 574.85 99.35 563.05 99.5 548.4 99.7 534.95 106.4 507.9 125.95 487.9 202.7 486.15 212.9 480.65 237.95 477 254.7 476.65 263.4 476.15 275.2 480.25 286.3 484.65 298.2 495.95 314.05 506.3 328.6 521.75 343 538.55 358.6 556.75 369.6 601.25 396.5 634.75 385.6 683.6 369.65 709.3 344.8 725.5 329.15 731.7 313.25 736.7 300.5 735.95 284.75 735.8 281.7 732.6 256.95 730.35 239.75 732.1 227.55 743.2 171 720.3 146.2 Z"/>
</g>

<g id="Layer1_0_MEMBER_38_FILL">
<path fill="#E6B485" stroke="none" d="
M 720.3 146.2
Q 709.65 134.75 690.75 128.25 674.1 122.5 648.05 119.75 636.15 118.05 619 112.7
L 575.25 119.25 515.5 155.25 522.3 164.75
Q 536 154.05 564.25 150.15 590.95 146.45 621.9 149.85 653.45 153.3 677.65 162.95 704.05 173.45 713.95 188.55 724.75 205 724.25 242 724.05 255 722.4 272.65 721.5 282.5 719.65 299.45 717.75 318.3 695.45 337.9 674.4 356.4 647.8 365.1 613.1 376.45 585.4 373.35 564.65 371.05 541.05 359.05 564.8 376.65 587.55 383.95 613.8 392.4 634.75 385.6 683.6 369.65 709.3 344.8 725.5 329.15 731.7 313.25 736.7 300.5 735.95 284.75 735.8 281.7 732.6 256.95 730.35 239.75 732.1 227.55 743.2 171 720.3 146.2 Z"/>
</g>

<g id="Layer1_0_MEMBER_39_FILL">
<path fill="#BC8E61" stroke="none" d="
M 636.65 214.65
Q 634.5 222.2 633.5 230.4 631.65 244.75 633.05 270 633.1 271.2 634.2 275.25 636 282.05 636.3 285.7 636.85 292.15 634.2 295.05 632.85 296.5 630.2 297.65 627.25 298.9 623.9 299.1 617.9 299.55 613.3 296.35 612.35 295.7 611.2 295.9 610 296.15 609.35 297.1 608.7 298.1 608.9 299.25 609.15 300.45 610.1 301.1 616.35 305.3 624.3 304.8 628.7 304.5 632.8 302.7 636.45 301.05 638.4 298.9 642.45 294.5 642.05 286.5 641.85 282 639.7 273.8 638.75 270.2 638.75 269.65 637.35 245.15 639.15 231.1 641 216.25 647.55 201.75 648.05 200.7 647.6 199.6 647.2 198.5 646.1 198 645.05 197.5 643.95 197.95 642.85 198.35 642.35 199.4 638.8 207.3 636.65 214.65 Z"/>
</g>

<g id="Layer1_0_MEMBER_40_FILL">
<path fill="#F3CBA9" stroke="none" d="
M 447.4 218.4
Q 446.45 222.95 446.85 233.55 447.3 245.2 449.2 256.05 454.4 285.5 466 286.15 482.05 287.05 490.15 271.8 496 260.85 496 247.65 496 245.05 494.35 241.15 493.6 239.35 491.25 234.75 490.35 233 491.4 230.2 492.45 227.5 491.25 225.45 479.7 211.55 467.2 206.7 451.1 200.4 447.4 218.4 Z"/>
</g>

<g id="Layer1_0_MEMBER_41_FILL">
<path fill="#E6B485" stroke="none" d="
M 744.5 219.45
Q 745.5 216.65 741.9 216.75 734.7 216.7 726.75 214.95 716.65 212.7 712.2 212.2 693 210.2 685.6 210.25 666.85 210.35 640.8 215.8 638.35 216.4 636.85 216.45 632.8 216.8 625.4 216.7 617.75 216.2 614 215.55 613 215.4 610.1 214.55 584.55 207 565.95 205.4 558.5 204.75 539.2 205.25 534.75 205.4 524.5 206.8 516.45 207.95 509.25 207.4 505.4 206.95 504.75 213.25 504.35 216.75 504.4 223.95 504.4 224.7 505.8 225 507.75 225.35 508.4 225.85 509.5 226.7 510.4 228.15 511.45 229.2 512.55 236 513.1 239.5 514.55 251.2 515.5 259.1 516.85 263.55 518.9 270.4 523.2 275.1 534.1 287 562.55 288.45 587.7 288.75 601 270.35 605.35 264.3 610.3 253.4 616.45 239.85 618.15 236.85 620.25 233.9 624.7 234.05 629.15 234.25 631 237.4 632.45 240.55 637.5 254.5 641.55 265.75 645.4 272.1 657.2 291.55 682.3 293.25 710.35 294.1 721.05 281.65 725.05 277 727.25 269.7 728 267.2 730.05 257.15 732.25 245.25 733.3 240.1 735.05 231.3 736.1 230.35 737.2 229 738.35 228.25 739.05 227.75 740.95 227.55 742.4 227.4 742.5 226.65 742.45 224.95 744.5 219.45
M 713.15 220.15
Q 723.5 223.6 725.4 227.55 729.8 241.3 727.05 257.25 724.5 272.25 717.75 279.25 712 285.2 702.6 287.35 694.45 289.2 684.55 288.1 657.45 285.5 647.05 263.65 643.2 255.6 642.1 245.8 641.25 238.1 642.2 231.65 642.55 224.1 656.5 219.55 669.65 215.25 687.3 215.85 701.8 216.3 713.15 220.15
M 594.2 217.05
Q 607.7 222.7 607.45 230.25 607.85 236.8 606.4 244.35 604.5 254.05 600.05 261.75 587.95 282.75 560.7 283.15 550.75 283.45 542.8 280.95 533.55 278 528.35 271.65 522.15 264.1 520.8 248.95 519.35 232.85 524.85 219.45 527.05 215.7 537.65 213.05 549.25 210.2 563.75 210.85 581.4 211.7 594.2 217.05 Z"/>
</g>

<g id="Layer1_0_MEMBER_42_FILL">
<path fill="#C48E59" stroke="none" d="
M 470.55 231.05
Q 465 228.9 463.4 236.65 462.25 242.2 464.2 253.2 466.5 266.15 471.6 266.45 481.15 264.1 482.7 255.8 483.95 248.9 479.65 240.75 475.55 233 470.55 231.05 Z"/>
</g>

<g id="Layer1_0_MEMBER_43_FILL">
<path fill="#DA642A" stroke="none" d="
M 652.15 324.95
Q 662.45 321.15 658.7 321.55 652 322.25 644.25 319.25 637.1 315.8 635.6 315.25 634.85 315.1 632.9 316.15 630.4 317.5 629.2 317.85 623.85 319.45 619.2 312.95 617.1 314.05 614.75 315.25 610.05 317.65 605.85 318.4 599.8 319.5 586.65 316.6 575.3 314.1 572.05 312.25 577.65 318.4 586.15 321.75 586.6 321.95 601.7 327 610.4 329.9 612.6 332.3
L 639.85 329.9
Q 640.25 329.35 652.15 324.95 Z"/>
</g>

<g id="Layer1_0_MEMBER_44_FILL">
<path fill="#DA642A" stroke="none" d="
M 574.25 296.1
Q 574.55 295.45 574.3 294.75 574.05 294.05 573.35 293.75 572.7 293.45 572 293.7 571.3 294 571 294.65 570.1 296.6 567.15 296.3 566 296.2 564.7 295.7 563.15 295.05 562.8 294.25 562.6 293.55 561.9 293.25 561.2 292.95 560.5 293.2 559.8 293.45 559.55 294.15 559.25 294.8 559.5 295.5 559.9 296.55 560.85 297.55 561.85 298.55 563.15 299.15 564.55 299.75 566.9 299.85 569.2 299.95 570.6 299.45
L 570.7 299.4
Q 573.15 298.55 574.25 296.1 Z"/>
</g>

<g id="Layer1_0_MEMBER_45_FILL">
<path fill="#DA642A" stroke="none" d="
M 672.3 320.35
Q 673 320.05 673.25 319.35 673.5 318.7 673.2 318 672.9 317.3 672.2 317.05 671.5 316.75 670.85 317.05 668.9 317.9 666.9 315.7 666.1 314.85 665.55 313.6 664.8 312.05 665.1 311.25 665.35 310.55 665.05 309.85 664.8 309.15 664.1 308.9 663.45 308.65 662.75 308.95 662.05 309.25 661.8 309.9 661.35 310.95 661.4 312.35 661.5 313.8 662.05 315.1 662.65 316.5 664.3 318.1 665.95 319.75 667.35 320.35
L 667.45 320.35
Q 669.8 321.4 672.3 320.35 Z"/>
</g>

<g id="Layer1_0_MEMBER_46_MEMBER_0_MEMBER_0_FILL">
<path fill="#3D3237" stroke="none" d="
M 650.6 328.75
Q 652.38671875 322.95546875 654.45 321.65 650.7150390625 323.7931640625 631.9 325.9 609.3 328.4 594.75 325.6 586.35 324 582.6 322.55 577.35 320.5 576 317.35 573.25 319.5 579.85 326 586.85 332.95 597.6 337.15 612.3 342.9 625.2 343.15 638.15 343.35 648.2 338.05 649.55 332.1 650.6 328.75 Z"/>
</g>

<g id="Mask_de_dibujos_animados_secretaria_de_sexo_femenino_by_Vexels_svg_Layer_1__Clip_Group__0_0_2_MASK_0_FILL">
<path fill="#FFFFFF" stroke="none" d="
M 93.5 21.25
Q 95.28671875 15.45546875 97.35 14.15 93.6150390625 16.2931640625 74.8 18.4 52.2 20.9 37.65 18.1 29.25 16.5 25.5 15.05 20.25 13 18.9 9.85 16.15 12 22.75 18.5 29.75 25.45 40.5 29.65 55.2 35.4 68.1 35.65 81.05 35.85 91.1 30.55 92.45 24.6 93.5 21.25 Z"/>
</g>

<g id="de_dibujos_animados_secretaria_de_sexo_femenino_by_Vexels_svg_Layer_1__Clip_Group__0_0_Layer2_0_MEMBER_0_FILL">
<path fill="#E5E2E2" stroke="none" d="
M 96.75 11.4
Q 99.145703125 5.533203125 101.75 4.25 97.035546875 6.4267578125 72.7 8.5 43.65 11 24.95 8.2 14.15 6.6 9.3 5.15 2.55 3.15 0.85 0 -2.7 2.1 5.75 8.65 14.8 15.6 28.55 19.8 47.45 25.55 64.1 25.75 80.7 26 93.7 20.7 96.3 12.5 96.75 11.4 Z"/>
</g>

<g id="Layer1_0_MEMBER_47_FILL">
<path fill="#EF8347" stroke="none" d="
M 655.9 323.1
Q 655.9 322.35 654.05 323.3 652.1 324.25 651.85 323.4 650.1 326.7 647.5 329.65 644.7 332.8 641.9 334.3 632.2 339.6 619.95 338.95 607.3 338.35 595.15 331.45 583.95 325.15 573.35 314.65 573.8 318.25 576.3 323.85 579.2 330.3 583.4 335.9 594.7 350.95 609.35 351.8 630.7 354.45 644.1 344.95 656.25 336.35 655.9 323.1 Z"/>
</g>

<g id="Layer1_0_MEMBER_48_FILL">
<path fill="#DA642A" stroke="none" d="
M 667.95 317.4
L 663.5 315.65
Q 662.5 318.1 655.35 320.4 648 322.8 637.1 324 615.6 326.45 593.75 322.2 580.6 319.7 574.2 312.9 568.2 306.5 569.25 296.55
L 564.45 296.05
Q 563.2 308.15 570.7 316.15 578.1 324.1 592.85 326.95 604.45 329.15 616.5 329.6 627.45 329.95 637.6 328.8 649.8 327.45 658.3 324.15 666.55 321 667.95 317.4 Z"/>
</g>

<g id="Layer1_0_MEMBER_49_FILL">
<path fill="#FFFFFF" stroke="none" d="
M 720.75 244.45
Q 721.4 231.65 711.8 222.1 702.25 212.55 688.05 211.8 673.85 211.1 663.35 219.65 652.85 228.2 652.2 241 651.55 253.8 661.15 263.4 670.7 272.95 684.9 273.65 699.1 274.35 709.6 265.8 720.1 257.25 720.75 244.45 Z"/>
</g>

<g id="Layer1_0_MEMBER_50_FILL">
<path fill="#F3CBA9" stroke="none" d="
M 694.25 196.25
Q 681.8 193.5 671.3 196.6 659.65 200.1 655.5 209.85 665.75 208 684.75 210.65 708.3 213.9 719.85 222.55 721.9 213.35 713.85 205.85 706.55 198.95 694.25 196.25 Z"/>
</g>

<g id="Layer1_0_MEMBER_51_FILL">
<path fill="#1A1414" stroke="none" d="
M 699.7 241.15
Q 699.7 233.85 694.5 228.6 689.3 223.4 681.95 223.4 674.6 223.4 669.4 228.6 664.2 233.85 664.2 241.15 664.2 248.5 669.4 253.75 674.6 258.95 681.95 258.95 689.3 258.95 694.5 253.75 699.7 248.5 699.7 241.15 Z"/>
</g>

<g id="Layer1_0_MEMBER_52_FILL">
<path fill="#FFFFFF" stroke="none" d="
M 673.2 230.7
Q 672.75 232 673.35 233.25 673.95 234.5 675.25 234.95 676.55 235.4 677.8 234.8 679.05 234.2 679.5 232.9 679.95 231.6 679.35 230.35 678.75 229.1 677.45 228.65 676.15 228.2 674.9 228.8 673.65 229.4 673.2 230.7 Z"/>
</g>

<g id="Layer1_0_MEMBER_53_FILL">
<path fill="#F3CBA9" stroke="none" d="
M 657.45 284.6
Q 665.35 286.35 683.65 288.8 686.3 289.3 691.2 290.75 695.6 292.05 697.9 292.4 705.4 293.45 713.85 288.5 715.65 280.15 706.65 273.05 698.5 266.55 685.15 263.7 671.65 260.8 660.55 263.4 648.2 266.25 644.2 275 643.8 281.5 657.45 284.6 Z"/>
</g>

<g id="Layer1_0_MEMBER_54_FILL">
<path fill="#FFFFFF" stroke="none" d="
M 598.75 233.8
Q 599.4 220.95 589.85 211.4 580.25 201.85 566.05 201.15 551.85 200.45 541.4 209 530.9 217.5 530.25 230.3 529.6 243.1 539.15 252.7 548.75 262.25 562.95 262.95 577.15 263.65 587.6 255.15 598.1 246.6 598.75 233.8 Z"/>
</g>

<g id="Layer1_0_MEMBER_55_FILL">
<path fill="#1A1414" stroke="none" d="
M 575.05 242.4
Q 580.25 237.2 580.25 229.85 580.25 222.5 575.05 217.3 569.8 212.1 562.5 212.1 555.15 212.1 549.95 217.3 544.7 222.5 544.7 229.85 544.7 237.2 549.95 242.4 555.15 247.6 562.5 247.6 569.8 247.6 575.05 242.4 Z"/>
</g>

<g id="Layer1_0_MEMBER_56_FILL">
<path fill="#FFFFFF" stroke="none" d="
M 553.75 219.35
Q 553.3 220.65 553.9 221.9 554.5 223.15 555.8 223.6 557.1 224.05 558.35 223.45 559.6 222.85 560.05 221.55 560.5 220.3 559.9 219.05 559.3 217.8 558 217.35 556.7 216.85 555.45 217.45 554.2 218.05 553.75 219.35 Z"/>
</g>

<g id="Layer1_0_MEMBER_57_FILL">
<path fill="#F3CBA9" stroke="none" d="
M 576.55 277.95
Q 584.05 279 592.5 274.05 594.3 265.7 585.3 258.6 577.15 252.1 563.8 249.25 550.3 246.35 539.2 248.95 526.85 251.8 522.85 260.55 522.45 267.05 536.1 270.1 544 271.85 562.3 274.3 565 274.8 569.85 276.25 574.25 277.6 576.55 277.95 Z"/>
</g>

<g id="Layer1_0_MEMBER_58_FILL">
<path fill="#F3CBA9" stroke="none" d="
M 698.15 194.25
Q 684.15 191.15 672.4 194.7 659.3 198.6 654.6 209.55 666.05 207.45 687.45 210.4 713.9 214.1 726.9 223.85 729.2 213.55 720.2 205.05 711.95 197.3 698.15 194.25 Z"/>
</g>

<g id="Layer1_0_MEMBER_59_FILL">
<path fill="#BC5E39" stroke="none" d="
M 581.35 170.4
Q 583.6 169.85 584.35 167.6 585 165.55 584.1 163.25 583.15 160.8 581.05 159.7 578.65 158.4 575.6 159.4 553.7 165.9 539.8 175.25 523.65 186.1 514.85 202.75 514.2 203.8 516.15 203.6 518.2 203.35 520.05 201.7 533.1 190.3 547 183.05 562.05 175.15 581.35 170.4 Z"/>
</g>

<g id="Layer1_0_MEMBER_60_FILL">
<path fill="#BC5E39" stroke="none" d="
M 638.65 79.9
Q 627.25 60.45 610.25 55.45 567.25 42.8 526.55 59.35 492.45 73.2 469.05 102.75 449.75 127.1 451.45 155.6 452.85 178.9 467.25 199.5 479.95 217.65 492.95 221.9 498.95 223.9 502.2 221.15 505.65 218.2 505.05 210.3 502.8 181 524.5 164.55 540.35 152.6 573.95 145.1 578.9 144 601.05 139.65 616.75 136.6 624.95 134.15 648.55 127.1 649.1 114 648.65 96.95 638.65 79.9 Z"/>
</g>

<g id="Layer1_0_MEMBER_61_FILL">
<path fill="#A44A31" stroke="none" d="
M 590.45 51.2
Q 605.05 66.2 603.1 82.05 601.4 95.75 587.55 108.85 575.5 120.3 556.9 129 539.85 137 524.15 139.65 509.8 142.1 501.65 173 498.3 185.55 497.1 199.5 495.9 212.9 497.05 222.7 501.25 222.85 503.3 219.9 505.55 216.7 505.05 210.3 502.8 181 524.5 164.55 540.35 152.6 573.95 145.1 578.9 144 601.05 139.65 616.75 136.6 624.95 134.15 648.55 127.1 649.1 114 648.65 96.95 638.65 79.9 627.25 60.45 610.25 55.45 600.4 52.5 590.45 51.2 Z"/>
</g>

<g id="Layer1_0_MEMBER_62_FILL">
<path fill="#BC5E39" stroke="none" d="
M 716 72.5
Q 689.05 50.95 652.5 64.25 637.15 69.8 631.55 84.7 627.9 94.5 627.5 114 627.85 127.2 643.15 134.2 652.35 138.4 677.1 145.2 700.25 152.8 712.5 164.7 729.45 181.2 732.4 210.3 733.95 225.75 736 228.65 738.35 231.95 744.4 225.25 749.9 219.15 754.6 208.95 759.95 197.25 762.3 184.2 768.25 150.6 752.3 121.6 743.05 104.75 736.5 95.3 726.5 80.9 716 72.5 Z"/>
</g>

<g id="Layer1_0_MEMBER_63_FILL">
<path fill="#A54B31" stroke="none" d="
M 677.1 145.2
Q 700.25 152.8 712.5 164.7 729.45 181.2 732.4 210.3 733.95 225.75 736 228.65 738.35 231.95 744.4 225.25 747.85 221.3 750.95 215.95 750.1 197.45 743.6 180.9 736.3 162.2 725.35 156.65 681.35 134.35 663.25 117.9 633.3 90.55 650.35 65.1 636.35 71.05 631.25 85.6 627.9 95.15 627.5 114 627.85 127.2 643.15 134.2 652.35 138.4 677.1 145.2 Z"/>
</g>

<g id="Layer1_0_MEMBER_64_FILL">
<path fill="#BC5E39" stroke="none" d="
M 659.15 193.6
Q 660.4 195.6 662.7 195.55 682.6 195.25 699.15 199 714.45 202.5 730 210.2 732.2 211.3 734.25 211 736.2 210.75 735.3 209.85 722.5 196.05 704.15 189.65 688.25 184.15 665.5 183.45 662.3 183.25 660.3 185.1 658.55 186.75 658.25 189.3 657.95 191.8 659.15 193.6 Z"/>
</g>

<g id="Layer1_0_MEMBER_65_FILL">
<path fill="#FCBE35" stroke="none" d="
M 473.05 276.15
Q 471 275.4 469.6 283.3 468.85 287.55 467.85 294.55 466.5 300 464.65 304.65 463.1 308.55 463 309.3 462.85 310.8 464.25 312.9 464.5 313.2 469.65 319.8 471.6 322.25 476.05 319.35 479.8 316.9 481.65 313.9 483.6 310.65 480.15 294.2 476.65 277.5 473.05 276.15 Z"/>
</g>

<g id="Layer1_0_MEMBER_66_FILL">
<path fill="#E3B905" stroke="none" d="
M 743.95 297.55
Q 743.2 301.8 742.2 308.8 740.85 314.25 738.95 318.9 737.45 322.8 737.35 323.55 737.15 325.1 738.6 327.15 738.85 327.55 744 334.1 745.95 336.55 750.4 333.6 754.1 331.15 755.95 328.15 757.9 324.9 754.45 308.45 750.95 291.75 747.4 290.4 745.35 289.65 743.95 297.55 Z"/>
</g>

<g id="Layer1_0_MEMBER_67_FILL">
<path fill="#006D40" stroke="none" d="
M 491.9 221.9
L 518.95 224.3 518.35 213.15 480.1 216 491.9 221.9 Z"/>
</g>

<g id="Layer1_0_MEMBER_68_FILL">
<path fill="#006D40" stroke="none" d="
M 748.75 209.45
Q 741.25 209.4 732.95 207.55 722.5 205.25 717.75 204.75 698.1 202.6 689.95 202.65 670.5 202.75 643.25 208.5 639.45 209.15 639.15 209.15 634.6 209.6 627.2 209.4 619.7 208.95 615.3 208.2 614.35 208.05 611.25 207.2 584.55 199.3 565.15 197.65 557.2 196.95 537.3 197.5 532.55 197.6 521.95 199.1 513.5 200.25 506.05 199.7 502 199.25 501.35 205.8 500.95 209.45 500.95 216.95 501 217.75 502.45 218.05 504.45 218.4 505.15 218.95 506.3 219.85 507.25 221.35 508.35 222.5 509.5 229.55 510.2 233.95 511.55 245.4 512.55 253.65 513.95 258.25 516.15 265.4 520.6 270.3 531.95 282.75 561.6 284.25 587.85 284.55 601.75 265.35 606.25 259.05 611.45 247.7 617.9 233.6 619.65 230.45 621.85 227.35 626.45 227.5 631.1 227.7 633 231 634.55 234.3 639.8 248.85 644.05 260.6 648.1 267.2 660.35 287.45 686.55 289.25 716.2 290.15 728.55 278.65 733.4 274.15 736.15 267.2 737.9 262.7 739.55 254.55 741.85 243 742.85 238.95 744.55 232 745.75 230.95 746.8 229.6 748.1 228.7 748.8 228.25 750.85 228.05 752.3 227.85 752.4 227.05 753.05 219.55 752.95 215.9 752.8 209.35 748.75 209.45
M 731.5 220.7
Q 736.05 235.05 733.2 251.7 730.55 267.35 723.5 274.65 717.55 280.85 707.7 283.1 699.25 285 688.9 283.9 660.65 281.2 649.75 258.35 645.75 249.95 644.6 239.75 643.75 231.75 644.7 225 645.05 217.15 659.6 212.4 673.3 207.9 691.75 208.5 706.85 209 718.75 212.95 729.5 216.6 731.5 220.7
M 607.35 238.3
Q 605.4 248.35 600.75 256.4 588.1 278.3 559.7 278.7 549.3 279 541.05 276.4 531.4 273.35 525.95 266.75 519.5 258.85 518.1 243.1 516.6 226.3 522.3 212.3 524.65 208.35 535.65 205.6 547.75 202.6 562.9 203.3 581.35 204.2 594.65 209.8 608.75 215.7 608.45 223.55 608.9 230.35 607.35 238.3 Z"/>
</g>

<g id="Layer0_0_FILL">
<path fill="#FFFFFF" stroke="none" d="
M 431.9 307.4
L 431.9 275.75 304.7 275.75 304.7 307.4 431.9 307.4 Z"/>
</g>

<g id="Layer0_1_FILL">
<path fill="url(#Gradient_1)" stroke="none" d="
M 173.4 63.2
L 173.5 61.75 59.7 61.75 59.7 63.2 173.4 63.2 Z"/>
</g>

<g id="Layer0_2_FILL">
<path fill="url(#Gradient_2)" stroke="none" d="
M 174 34.7
Q 174 33.7 173.9 33.25
L 62.55 33.25 62.55 34.7 174 34.7 Z"/>
</g>

<g id="Layer0_3_FILL">
<path fill="url(#Gradient_3)" stroke="none" d="
M 43.75 0
L 43.25 0 42.7 0.1
Q 40.7 0.45 38.6 1.5 34.15 3.65 31.8 8 30.55 10.1 30.25 12.7 30.05 14.15 30.25 15.55 32.75 15.75 35.2 14.75 37.7 13.7 39.75 11.4 41.35 9.65 42.4 7.45 43.4 5.55 43.65 3.2 43.75 2.15 43.75 0 Z"/>
</g>

<g id="Layer0_4_FILL">
<path fill="url(#Gradient_4)" stroke="none" d="
M 31.3 68.25
Q 17.55 68.1 4.7 63.15 11.65 74.25 24.4 77.2 37.15 80.15 48.25 73.25 54.15 69.55 57.95 63.7 45.05 68.4 31.3 68.25
M 63 46.6
Q 63 41.6 61.5 36.85 47.5 44.75 31.5 44.95 15.45 45.2 1.25 37.75 0 42 0 46.6 0 47.35 0.35 51.55 7.05 54.9 15.25 56.35 22.3 57.6 31.35 57.6 48 57.6 62.8 50.15 63 48.6 63 46.6
M 54 24.6
Q 48.9 19.4 41.9 16.95 36.9 18.95 31.45 18.95 26.05 18.95 21 17 13.65 19.55 8.4 25.3 19.1 31 31.3 30.8 43.4 30.6 54 24.6 Z"/>
</g>

<g id="Layer0_5_FILL">
<path fill="url(#Gradient_5)" stroke="none" d="
M 10.85 29.85
Q 6.8 34.8 1.2 38 -0.65 44.8 0.4 51.55 12.3 47.45 20.35 37.6 28.5 27.85 30.35 15.2
L 30.05 15.2
Q 23.1 15.5 17 18.7 14.95 24.85 10.85 29.85
M 53.65 24.25
Q 48.65 19.35 42.1 17 39.65 32.8 29.4 45.2 19.35 57.4 4.45 62.75 8.15 68.95 14.3 72.95 29.35 66.3 39.7 53.75 50.25 41.05 54 24.6
L 53.65 24.25
M 63 45.15
Q 62.8 40.85 61.4 36.65 56.6 51.65 48.2 61.85 39.5 72.4 27.05 77.7 29.55 78.1 33 78 46 77.45 54.8 67.8 63.55 58.2 63 45.15 Z"/>
</g>

<g id="Layer0_6_FILL">
<path fill="#1F6395" stroke="none" d="
M 74.75 49.2
Q 76.2 48.2 76.55 45.05 76.95 40.45 74.3 40.45
L 68.25 40.45 66.5 57.4 68.75 57.4 69.4 51.15 72.2 51.15
Q 73.4 51.15 73.1 54.15 72.8 55.9 73 57.45
L 75.4 57.45
Q 75.2 55.55 75.4 53.75 75.9 49.55 74.75 49.2
M 69.75 48
L 70.15 43.75 73.05 43.75
Q 74.25 43.75 74.05 45.85 73.85 48 72.75 48
L 69.75 48
M 153.6 52.5
L 153.6 52.4
Q 153.7 51.75 154.35 51.85 155 51.85 155 52.7
L 156.2 52.7
Q 156.3 50.5 154.55 50.5 152.75 50.5 152.55 52.65 152.35 54.25 153.4 54.5
L 154.3 54.8
Q 154.7 54.9 154.8 55.05 154.85 55.15 154.85 55.45
L 154.85 55.5
Q 154.8 55.8 154.55 56 154.3 56.2 154 56.15 153.35 56.15 153.35 55.2
L 152.15 55.25
Q 152 57.5 153.8 57.5 155.75 57.5 156 55.3 156.15 53.55 154.8 53.3
L 154.05 53.15
Q 153.6 53.05 153.6 52.5
M 120 40.45
L 114.35 40.45 112.6 57.5 114.85 57.5 115.5 51.4 119 51.4
Q 121.75 51.4 122.4 45.6 122.85 40.45 120 40.45
M 115.8 48.3
L 116.3 43.55 118.95 43.55
Q 119.6 43.55 119.8 43.85 120.15 44.4 120 45.95 119.85 47.5 119.3 48 119 48.3 118.25 48.3
L 115.8 48.3
M 104.75 43.7
L 107.85 43.7 106.45 57.5 108.7 57.5 110.15 43.7 113.25 43.7 113.55 40.45 105.1 40.45 104.75 43.7
M 98.4 47.2
L 98.75 43.7 104.3 43.7 104.6 40.45 96.8 40.45 95.05 57.5 102.9 57.5 103.25 54.25 97.65 54.25 98.05 50.3 103.3 50.3 103.65 47.2 98.4 47.2
M 91.1 39.9
Q 86.95 39.9 86.4 45.25 86.15 47.65 86.9 48.8 87.45 49.7 88.75 50.1
L 90.75 50.75
Q 91.45 51 91.75 51.4 92.05 51.85 91.95 52.75 91.75 54.85 89.95 54.85 87.8 54.85 88.1 52.1
L 85.55 52.1
Q 85.2 55.65 86.6 57.05 87.6 57.95 89.6 57.95 94 57.95 94.55 52.25 94.95 48.3 92.35 47.45
L 89.65 46.5
Q 88.7 46.25 88.85 44.95 88.95 44.1 89.4 43.5 89.9 42.95 90.6 42.95 91.45 42.95 91.9 43.35 92.5 43.9 92.45 45.4
L 94.95 45.35
Q 95.35 39.9 91.1 39.9
M 85.65 43.7
L 86 40.45 78.2 40.45 76.4 57.5 84.25 57.5 84.55 54.25 79 54.25 79.4 50.3 84.65 50.3 85 47.2 79.75 47.2 80.1 43.7 85.65 43.7
M 151.85 40.45
L 149.55 40.45 148.55 50.25
Q 148.15 54.7 146 54.7 143.8 54.7 144.35 50.25
L 145.35 40.45 143.05 40.45 141.9 51.4
Q 141.7 54 142.1 55.4 142.85 57.95 145.6 57.95 150 57.95 150.7 51.35
L 151.85 40.45
M 139.7 49.2
Q 141.1 48.25 141.5 45.05 141.9 40.45 139.25 40.45
L 133.2 40.45 131.45 57.4 133.75 57.4 134.4 51.15 137.2 51.15
Q 138.4 51.15 138.1 54.15 137.8 55.9 138 57.45
L 140.35 57.45
Q 140.15 55.55 140.35 53.75 140.85 49.55 139.7 49.2
M 134.65 48
L 135.1 43.75 138 43.75
Q 139.2 43.75 139 45.85 138.75 48 137.65 48
L 134.65 48
M 130.9 47.2
L 125.65 47.2 126.05 43.7 131.55 43.7 131.9 40.45 124.1 40.45 122.4 57.5 130.2 57.5 130.55 54.25 125 54.25 125.35 50.3 130.6 50.3 130.9 47.2 Z"/>
</g>

<g id="Layer0_7_FILL">
<path fill="#1F6395" stroke="none" d="
M 155.75 57.1
L 156.9 57.1 157.1 55.1 156 55.1 155.75 57.1
M 162.35 57.25
Q 162.3 56.55 162.35 55.95
L 162.65 52.7
Q 162.95 50.5 161.1 50.5 159.35 50.5 159 52.7
L 160.05 52.75
Q 160.2 52.1 160.45 51.9 160.6 51.75 161 51.75 161.8 51.75 161.75 52.55 161.6 53.2 161.25 53.2
L 160.1 53.35
Q 158.8 53.55 158.55 55.35 158.35 57.5 159.75 57.5 160.75 57.5 161.35 56.55
L 161.35 57.25 162.35 57.25
M 161.6 54
L 161.5 54.55
Q 161.45 55.3 161 55.8 160.6 56.2 160.25 56.2 159.55 56.2 159.65 55.25 159.8 54.45 160.3 54.4
L 160.95 54.3
Q 161.3 54.3 161.6 54 Z"/>
</g>

<g id="Layer0_8_FILL">
<path fill="#1F6395" stroke="none" d="
M 163.65 55.1
L 162.5 55.1 162.3 57.1 163.4 57.1 163.65 55.1
M 168.4 53.1
L 169.5 53.15
Q 169.5 50.5 167.8 50.5 165.7 50.5 165.35 54 165 57.5 167 57.5 168.8 57.5 169.3 54.65
L 168.25 54.65
Q 168 56 167.25 56 166.25 56 166.4 54 166.65 52 167.65 52 168.4 52 168.4 53.1 Z"/>
</g>

<path id="Layer1_0_MEMBER_2_MEMBER_4_1_STROKES" stroke="#F3CBA9" stroke-width="0.15" stroke-linejoin="miter" stroke-linecap="butt" stroke-miterlimit="22" fill="none" d="
M 211.11222839355472 199.22445907592774
Q 212.04099197387697 198.03921279907226 212.58645629882815 196.0789978027344 213.10243606567386 194.19476013183595 212.85181732177736 193.2526412963867 208.38490676879886 190.6694122314453 202.94500579833985 189.63612060546876 201.5002624511719 189.46897048950197 200.4240760803223 191.8090721130371 199.34788970947264 194.13397827148438 200.0112922668457 195.714306640625 208.75346374511722 199.3156318664551 211.11222839355472 199.22445907592774 Z"/>

<path id="Layer0_0_1_STROKES" stroke="#3399CC" stroke-width="1" stroke-linejoin="round" stroke-linecap="round" fill="none" d="
M 304.7 275.75
L 431.9 275.75 431.9 307.4 304.7 307.4 304.7 275.75 Z"/>
</defs>

<g transform="matrix( 0.2948455810546875, 0, 0, 0.3039093017578125, -11.85,15.8) ">
<use xlink:href="#Layer1_0_MEMBER_0_FILL"/>
</g>

<g transform="matrix( 0.2948455810546875, 0, 0, 0.3039093017578125, -11.85,15.8) ">
<use xlink:href="#Layer1_0_MEMBER_1_FILL"/>
</g>

<g transform="matrix( 0.2948455810546875, 0, 0, 0.3039093017578125, -11.85,15.8) ">
<use xlink:href="#Layer1_0_MEMBER_2_MEMBER_0_FILL"/>
</g>

<g transform="matrix( 0.2948455810546875, 0, 0, 0.3039093017578125, -11.85,15.8) ">
<use xlink:href="#Layer1_0_MEMBER_2_MEMBER_1_MEMBER_0_MEMBER_0_FILL"/>
</g>

<g transform="matrix( 0.2948455810546875, 0, 0, 0.3039093017578125, 162.85,148.7) ">
<mask id="Mask_Mask_1">
<g transform="matrix( 1, 0, 0, 1, 0,0) ">
<use xlink:href="#Mask_de_dibujos_animados_secretaria_de_sexo_femenino_by_Vexels_svg_Layer_1__Clip_Group__0_2_MASK_0_FILL"/>
</g>
</mask>

<g mask="url(#Mask_Mask_1)">
<g transform="matrix( 1, 0, 0, 1, 0,0) ">
<use xlink:href="#de_dibujos_animados_secretaria_de_sexo_femenino_by_Vexels_svg_Layer_1__Clip_Group__0_Layer2_0_MEMBER_0_FILL"/>
</g>
</g>
</g>

<g transform="matrix( 0.2948455810546875, 0, 0, 0.3039093017578125, -11.85,15.8) ">
<use xlink:href="#Layer1_0_MEMBER_2_MEMBER_2_FILL"/>
</g>

<g transform="matrix( 0.2948455810546875, 0, 0, 0.3039093017578125, -11.85,15.8) ">
<use xlink:href="#Layer1_0_MEMBER_2_MEMBER_3_FILL"/>
</g>

<g transform="matrix( 0.2948455810546875, 0, 0, 0.3039093017578125, -11.85,15.8) ">
<use xlink:href="#Layer1_0_MEMBER_2_MEMBER_4_FILL"/>

<use xlink:href="#Layer1_0_MEMBER_2_MEMBER_4_1_STROKES" transform="matrix( 3.3916015625, 0, 0, 3.2904510498046875, 40.15,-51.95) "/>
</g>

<g transform="matrix( 0.2948455810546875, 0, 0, 0.3039093017578125, -11.85,15.8) ">
<use xlink:href="#Layer1_0_MEMBER_2_MEMBER_5_FILL"/>
</g>

<g transform="matrix( 0.2948455810546875, 0, 0, 0.3039093017578125, -11.85,15.8) ">
<use xlink:href="#Layer1_0_MEMBER_3_FILL"/>
</g>

<g transform="matrix( 0.2948455810546875, 0, 0, 0.3039093017578125, -11.85,15.8) ">
<use xlink:href="#Layer1_0_MEMBER_4_FILL"/>
</g>

<g transform="matrix( 0.2948455810546875, 0, 0, 0.3039093017578125, -11.85,15.8) ">
<use xlink:href="#Layer1_0_MEMBER_5_FILL"/>
</g>

<g transform="matrix( 0.2948455810546875, 0, 0, 0.3039093017578125, -11.85,15.8) ">
<use xlink:href="#Layer1_0_MEMBER_6_FILL"/>
</g>

<g transform="matrix( 0.2948455810546875, 0, 0, 0.3039093017578125, -11.85,15.8) ">
<use xlink:href="#Layer1_0_MEMBER_7_FILL"/>
</g>

<g transform="matrix( 0.2948455810546875, 0, 0, 0.3039093017578125, -11.85,15.8) ">
<use xlink:href="#Layer1_0_MEMBER_8_FILL"/>
</g>

<g transform="matrix( 0.2948455810546875, 0, 0, 0.3039093017578125, -11.85,15.8) ">
<use xlink:href="#Layer1_0_MEMBER_9_FILL"/>
</g>

<g transform="matrix( 0.2948455810546875, 0, 0, 0.3039093017578125, -11.85,15.8) ">
<use xlink:href="#Layer1_0_MEMBER_10_FILL"/>
</g>

<g transform="matrix( 0.2948455810546875, 0, 0, 0.3039093017578125, -11.85,15.8) ">
<use xlink:href="#Layer1_0_MEMBER_11_FILL"/>
</g>

<g transform="matrix( 0.2948455810546875, 0, 0, 0.3039093017578125, -11.85,15.8) ">
<use xlink:href="#Layer1_0_MEMBER_12_FILL"/>
</g>

<g transform="matrix( 0.2948455810546875, 0, 0, 0.3039093017578125, -11.85,15.8) ">
<use xlink:href="#Layer1_0_MEMBER_13_FILL"/>
</g>

<g transform="matrix( 0.2948455810546875, 0, 0, 0.3039093017578125, -11.85,15.8) ">
<use xlink:href="#Layer1_0_MEMBER_14_FILL"/>
</g>

<g transform="matrix( 0.2948455810546875, 0, 0, 0.3039093017578125, -11.85,15.8) ">
<use xlink:href="#Layer1_0_MEMBER_15_FILL"/>
</g>

<g transform="matrix( 0.2948455810546875, 0, 0, 0.3039093017578125, -11.85,15.8) ">
<use xlink:href="#Layer1_0_MEMBER_16_FILL"/>
</g>

<g transform="matrix( 0.2948455810546875, 0, 0, 0.3039093017578125, -11.85,15.8) ">
<use xlink:href="#Layer1_0_MEMBER_17_FILL"/>
</g>

<g transform="matrix( 0.2948455810546875, 0, 0, 0.3039093017578125, -11.85,15.8) ">
<use xlink:href="#Layer1_0_MEMBER_18_MEMBER_0_MEMBER_0_FILL"/>
</g>

<g transform="matrix( 0.2948455810546875, 0, 0, 0.3039093017578125, -11.85,15.8) ">
<use xlink:href="#Layer1_0_MEMBER_19_FILL"/>
</g>

<g transform="matrix( 0.2948455810546875, 0, 0, 0.3039093017578125, -11.85,15.8) ">
<use xlink:href="#Layer1_0_MEMBER_20_FILL"/>
</g>

<g transform="matrix( 0.2948455810546875, 0, 0, 0.3039093017578125, -11.85,15.8) ">
<use xlink:href="#Layer1_0_MEMBER_21_FILL"/>
</g>

<g transform="matrix( 0.2948455810546875, 0, 0, 0.3039093017578125, -11.85,15.8) ">
<use xlink:href="#Layer1_0_MEMBER_22_FILL"/>
</g>

<g transform="matrix( 0.2948455810546875, 0, 0, 0.3039093017578125, -11.85,15.8) ">
<use xlink:href="#Layer1_0_MEMBER_23_FILL"/>
</g>

<g transform="matrix( 0.2948455810546875, 0, 0, 0.3039093017578125, -11.85,15.8) ">
<use xlink:href="#Layer1_0_MEMBER_24_FILL"/>
</g>

<g transform="matrix( 0.2948455810546875, 0, 0, 0.3039093017578125, -11.85,15.8) ">
<use xlink:href="#Layer1_0_MEMBER_25_FILL"/>
</g>

<g transform="matrix( 0.2948455810546875, 0, 0, 0.3039093017578125, -11.85,15.8) ">
<use xlink:href="#Layer1_0_MEMBER_26_FILL"/>
</g>

<g transform="matrix( 0.2948455810546875, 0, 0, 0.3039093017578125, -11.85,15.8) ">
<use xlink:href="#Layer1_0_MEMBER_27_FILL"/>
</g>

<g transform="matrix( 0.2948455810546875, 0, 0, 0.3039093017578125, -11.85,15.8) ">
<use xlink:href="#Layer1_0_MEMBER_28_FILL"/>
</g>

<g transform="matrix( 0.2948455810546875, 0, 0, 0.3039093017578125, -11.85,15.8) ">
<use xlink:href="#Layer1_0_MEMBER_29_FILL"/>
</g>

<g transform="matrix( 0.2948455810546875, 0, 0, 0.3039093017578125, -11.85,15.8) ">
<use xlink:href="#Layer1_0_MEMBER_30_FILL"/>
</g>

<g transform="matrix( 0.2948455810546875, 0, 0, 0.3039093017578125, -11.85,15.8) ">
<use xlink:href="#Layer1_0_MEMBER_31_FILL"/>
</g>

<g transform="matrix( 0.2948455810546875, 0, 0, 0.3039093017578125, -11.85,15.8) ">
<use xlink:href="#Layer1_0_MEMBER_32_FILL"/>
</g>

<g transform="matrix( 0.2948455810546875, 0, 0, 0.3039093017578125, -11.85,15.8) ">
<use xlink:href="#Layer1_0_MEMBER_33_FILL"/>
</g>

<g transform="matrix( 0.2948455810546875, 0, 0, 0.3039093017578125, -11.85,15.8) ">
<use xlink:href="#Layer1_0_MEMBER_34_FILL"/>
</g>

<g transform="matrix( 0.2948455810546875, 0, 0, 0.3039093017578125, -11.85,15.8) ">
<use xlink:href="#Layer1_0_MEMBER_35_FILL"/>
</g>

<g transform="matrix( 0.2948455810546875, 0, 0, 0.3039093017578125, -11.85,15.8) ">
<use xlink:href="#Layer1_0_MEMBER_36_FILL"/>
</g>

<g transform="matrix( 0.2948455810546875, 0, 0, 0.3039093017578125, -11.85,15.8) ">
<use xlink:href="#Layer1_0_MEMBER_37_FILL"/>
</g>

<g transform="matrix( 0.2948455810546875, 0, 0, 0.3039093017578125, -11.85,15.8) ">
<use xlink:href="#Layer1_0_MEMBER_38_FILL"/>
</g>

<g transform="matrix( 0.2948455810546875, 0, 0, 0.3039093017578125, -11.85,15.8) ">
<use xlink:href="#Layer1_0_MEMBER_39_FILL"/>
</g>

<g transform="matrix( 0.2948455810546875, 0, 0, 0.3039093017578125, -11.85,15.8) ">
<use xlink:href="#Layer1_0_MEMBER_40_FILL"/>
</g>

<g transform="matrix( 0.2948455810546875, 0, 0, 0.3039093017578125, -11.85,15.8) ">
<use xlink:href="#Layer1_0_MEMBER_41_FILL"/>
</g>

<g transform="matrix( 0.2948455810546875, 0, 0, 0.3039093017578125, -11.85,15.8) ">
<use xlink:href="#Layer1_0_MEMBER_42_FILL"/>
</g>

<g transform="matrix( 0.2948455810546875, 0, 0, 0.3039093017578125, -11.85,15.8) ">
<use xlink:href="#Layer1_0_MEMBER_43_FILL"/>
</g>

<g transform="matrix( 0.2948455810546875, 0, 0, 0.3039093017578125, -11.85,15.8) ">
<use xlink:href="#Layer1_0_MEMBER_44_FILL"/>
</g>

<g transform="matrix( 0.2948455810546875, 0, 0, 0.3039093017578125, -11.85,15.8) ">
<use xlink:href="#Layer1_0_MEMBER_45_FILL"/>
</g>

<g transform="matrix( 0.2948455810546875, 0, 0, 0.3039093017578125, -11.85,15.8) ">
<use xlink:href="#Layer1_0_MEMBER_46_MEMBER_0_MEMBER_0_FILL"/>
</g>

<g transform="matrix( 0.2948455810546875, 0, 0, 0.3039093017578125, 152.3,109.25) ">
<mask id="Mask_Mask_2">
<g transform="matrix( 1, 0, 0, 1, 0,0) ">
<use xlink:href="#Mask_de_dibujos_animados_secretaria_de_sexo_femenino_by_Vexels_svg_Layer_1__Clip_Group__0_0_2_MASK_0_FILL"/>
</g>
</mask>

<g mask="url(#Mask_Mask_2)">
<g transform="matrix( 1, 0, 0, 1, 0,0) ">
<use xlink:href="#de_dibujos_animados_secretaria_de_sexo_femenino_by_Vexels_svg_Layer_1__Clip_Group__0_0_Layer2_0_MEMBER_0_FILL"/>
</g>
</g>
</g>

<g transform="matrix( 0.2948455810546875, 0, 0, 0.3039093017578125, -11.85,15.8) ">
<use xlink:href="#Layer1_0_MEMBER_47_FILL"/>
</g>

<g transform="matrix( 0.2948455810546875, 0, 0, 0.3039093017578125, -11.85,15.8) ">
<use xlink:href="#Layer1_0_MEMBER_48_FILL"/>
</g>

<g transform="matrix( 0.2948455810546875, 0, 0, 0.3039093017578125, -11.85,15.8) ">
<use xlink:href="#Layer1_0_MEMBER_49_FILL"/>
</g>

<g transform="matrix( 0.2948455810546875, 0, 0, 0.3039093017578125, -11.85,15.8) ">
<use xlink:href="#Layer1_0_MEMBER_50_FILL"/>
</g>

<g transform="matrix( 0.2948455810546875, 0, 0, 0.3039093017578125, -11.85,15.8) ">
<use xlink:href="#Layer1_0_MEMBER_51_FILL"/>
</g>

<g transform="matrix( 0.2948455810546875, 0, 0, 0.3039093017578125, -11.85,15.8) ">
<use xlink:href="#Layer1_0_MEMBER_52_FILL"/>
</g>

<g transform="matrix( 0.2948455810546875, 0, 0, 0.3039093017578125, -11.85,15.8) ">
<use xlink:href="#Layer1_0_MEMBER_53_FILL"/>
</g>

<g transform="matrix( 0.2948455810546875, 0, 0, 0.3039093017578125, -11.85,15.8) ">
<use xlink:href="#Layer1_0_MEMBER_54_FILL"/>
</g>

<g transform="matrix( 0.2948455810546875, 0, 0, 0.3039093017578125, -11.85,15.8) ">
<use xlink:href="#Layer1_0_MEMBER_55_FILL"/>
</g>

<g transform="matrix( 0.2948455810546875, 0, 0, 0.3039093017578125, -11.85,15.8) ">
<use xlink:href="#Layer1_0_MEMBER_56_FILL"/>
</g>

<g transform="matrix( 0.2948455810546875, 0, 0, 0.3039093017578125, -11.85,15.8) ">
<use xlink:href="#Layer1_0_MEMBER_57_FILL"/>
</g>

<g transform="matrix( 0.2948455810546875, 0, 0, 0.3039093017578125, -11.85,15.8) ">
<use xlink:href="#Layer1_0_MEMBER_58_FILL"/>
</g>

<g transform="matrix( 0.2948455810546875, 0, 0, 0.3039093017578125, -11.85,15.8) ">
<use xlink:href="#Layer1_0_MEMBER_59_FILL"/>
</g>

<g transform="matrix( 0.2948455810546875, 0, 0, 0.3039093017578125, -11.85,15.8) ">
<use xlink:href="#Layer1_0_MEMBER_60_FILL"/>
</g>

<g transform="matrix( 0.2948455810546875, 0, 0, 0.3039093017578125, -11.85,15.8) ">
<use xlink:href="#Layer1_0_MEMBER_61_FILL"/>
</g>

<g transform="matrix( 0.2948455810546875, 0, 0, 0.3039093017578125, -11.85,15.8) ">
<use xlink:href="#Layer1_0_MEMBER_62_FILL"/>
</g>

<g transform="matrix( 0.2948455810546875, 0, 0, 0.3039093017578125, -11.85,15.8) ">
<use xlink:href="#Layer1_0_MEMBER_63_FILL"/>
</g>

<g transform="matrix( 0.2948455810546875, 0, 0, 0.3039093017578125, -11.85,15.8) ">
<use xlink:href="#Layer1_0_MEMBER_64_FILL"/>
</g>

<g transform="matrix( 0.2948455810546875, 0, 0, 0.3039093017578125, -11.85,15.8) ">
<use xlink:href="#Layer1_0_MEMBER_65_FILL"/>
</g>

<g transform="matrix( 0.2948455810546875, 0, 0, 0.3039093017578125, -11.85,15.8) ">
<use xlink:href="#Layer1_0_MEMBER_66_FILL"/>
</g>

<g transform="matrix( 0.2948455810546875, 0, 0, 0.3039093017578125, -11.85,15.8) ">
<use xlink:href="#Layer1_0_MEMBER_67_FILL"/>
</g>

<g transform="matrix( 0.2948455810546875, 0, 0, 0.3039093017578125, -11.85,15.8) ">
<use xlink:href="#Layer1_0_MEMBER_68_FILL"/>
</g>

<g transform="matrix( 1, 0, 0, 1, 0,0) ">
<use xlink:href="#Layer0_0_FILL"/>

<use xlink:href="#Layer0_0_1_STROKES"/>
</g>

<g transform="matrix( 1.2183837890625, 0, 0, 1.3585205078125, 263.6,99.65) ">
<use xlink:href="#Layer0_1_FILL"/>
</g>

<g transform="matrix( 1.2183837890625, 0, 0, 1.3585205078125, 263.6,99.65) ">
<use xlink:href="#Layer0_2_FILL"/>
</g>

<g transform="matrix( 1.2183837890625, 0, 0, 1.3585205078125, 263.6,99.65) ">
<use xlink:href="#Layer0_3_FILL"/>
</g>

<g transform="matrix( 1.2183837890625, 0, 0, 1.3585205078125, 263.6,99.65) ">
<use xlink:href="#Layer0_4_FILL"/>
</g>

<g transform="matrix( 1.2183837890625, 0, 0, 1.3585205078125, 263.6,99.65) ">
<use xlink:href="#Layer0_5_FILL"/>
</g>

<g transform="matrix( 1.2183837890625, 0, 0, 1.3585205078125, 263.6,99.65) ">
<use xlink:href="#Layer0_6_FILL"/>
</g>

<g transform="matrix( 1.2183837890625, 0, 0, 1.3585205078125, 263.6,99.65) ">
<use xlink:href="#Layer0_7_FILL"/>
</g>

<g transform="matrix( 1.2183837890625, 0, 0, 1.3585205078125, 263.6,99.65) ">
<use xlink:href="#Layer0_8_FILL"/>
</g>

<g transform="matrix( 1, 0, 0, 1, 266.9,212.25) ">
<clipPath id="Mask_Mask_3">
<rect x="-2" y="-2" width="237.2" height="45.9" fill="#FFFFFF" stroke="none"/>
</clipPath>

<text clip-path="url(#Mask_Mask_3)" writing-mode="lr"><tspan x="0" y="16.05" baseline-shift="0%" font-family="Times New Roman" font-size="18" fill="#000000" xml:space="preserve">Disculpa pagina no se </tspan><tspan x="0" y="38" baseline-shift="0%" font-family="Times New Roman" font-size="18" fill="#000000" xml:space="preserve">encontro, puede volver al inicio.</tspan></text>
</g>

<g transform="matrix( 1, 0, 0, 1, 339.05,283.05) ">
<clipPath id="Mask_Mask_4">
<rect x="-2" y="-2" width="60.2" height="23.95" fill="#FFFFFF" stroke="none"/>
</clipPath>

<text clip-path="url(#Mask_Mask_4)" writing-mode="lr"><tspan x="0" y="16.05" baseline-shift="0%" font-family="Times New Roman" font-size="18" fill="#000000" xml:space="preserve">INICIO</tspan></text>
</g>
</svg>
