<svg id="Capa_1" data-name="Capa 1" xmlns="http://www.w3.org/2000/svg" xmlns:xlink="http://www.w3.org/1999/xlink" viewBox="0 0 174 78"><defs><style>.cls-1,.cls-2,.cls-3,.cls-4,.cls-5{fill-rule:evenodd;}.cls-1{fill:url(#radial-gradient);}.cls-2{fill:url(#radial-gradient-2);}.cls-3{fill:url(#radial-gradient-3);}.cls-4{fill:url(#radial-gradient-4);}.cls-5{fill:url(#radial-gradient-5);}.cls-6{fill:#1f6395;}</style><radialGradient id="radial-gradient" cx="140.82" cy="94.56" r="40.49" gradientTransform="translate(-19.13 -125.23) scale(1.37 2.39)" gradientUnits="userSpaceOnUse"><stop offset="0" stop-color="#93d0e4"/><stop offset="0.43" stop-color="#00a5d4"/><stop offset="0.98" stop-color="#006293"/></radialGradient><radialGradient id="radial-gradient-2" cx="141.85" cy="82.61" r="39.76" xlink:href="#radial-gradient"/><radialGradient id="radial-gradient-3" cx="101.99" cy="61.76" r="4.34" gradientTransform="translate(-98.94 -57.94) scale(1.69 1.68)" xlink:href="#radial-gradient"/><radialGradient id="radial-gradient-4" cx="105.17" cy="95.68" r="18.7" gradientTransform="translate(-98.94 -57.94) scale(1.69 1.68)" gradientUnits="userSpaceOnUse"><stop offset="0" stop-color="#ddeff4"/><stop offset="1" stop-color="#07b1d3"/></radialGradient><radialGradient id="radial-gradient-5" cx="90.22" cy="78.01" r="17.76" gradientTransform="translate(-98.94 -57.94) scale(1.69 1.68)" xlink:href="#radial-gradient"/></defs><title>logo</title><path class="cls-1" d="M209.53,99.72H95.74v1.44H209.42Q209.48,100.44,209.53,99.72Z" transform="translate(-36 -38)"/><path class="cls-2" d="M209.93,71.22H98.57v1.44H210C210,72.17,210,71.69,209.93,71.22Z" transform="translate(-36 -38)"/><path class="cls-3" d="M79.75,38c0,1.06,0,2.13-.08,3.19a11.79,11.79,0,0,1-1.25,4.25,16.8,16.8,0,0,1-2.67,3.95,13.27,13.27,0,0,1-4.53,3.34,10.19,10.19,0,0,1-4.94.78,10.24,10.24,0,0,1,0-2.82A12.48,12.48,0,0,1,67.81,46a15.15,15.15,0,0,1,6.82-6.52,14.65,14.65,0,0,1,4.11-1.39l.55-.1Z" transform="translate(-36 -38)"/><path class="cls-4" d="M90,62.56a31.58,31.58,0,0,0-12.06-7.63A28.94,28.94,0,0,1,57,55a31.57,31.57,0,0,0-12.6,8.27A47.33,47.33,0,0,0,90,62.56Zm7.5,12.28a62.95,62.95,0,0,1-60.22.89A31.22,31.22,0,0,0,36,84.59c0,1.24.25,3.74.39,4.94,9.44,4.68,19.86,6.06,31,6.06a70.09,70.09,0,0,0,31.44-7.46,31.78,31.78,0,0,0,.2-3.55A31.24,31.24,0,0,0,97.51,74.84Zm-56.78,26.3a31.6,31.6,0,0,0,53.27.53,75.91,75.91,0,0,1-53.27-.53Z" transform="translate(-36 -38)"/><path class="cls-5" d="M99,83.14a31.38,31.38,0,0,0-1.59-8.51c-2.88,9.12-7.25,18-13.18,25.21a56.26,56.26,0,0,1-21.18,15.85A31.84,31.84,0,0,0,69,116,31.46,31.46,0,0,0,99,83.14ZM56.39,75.6a45.46,45.46,0,0,0,10-22.41h-.34A31.52,31.52,0,0,0,53,56.69,34.91,34.91,0,0,1,37.2,76a31.39,31.39,0,0,0-.8,13.53A45.17,45.17,0,0,0,56.39,75.6ZM75.71,91.75A69.72,69.72,0,0,0,90,62.59l-.31-.34A31.62,31.62,0,0,0,78.11,55a57.55,57.55,0,0,1-12.7,28.15,57.22,57.22,0,0,1-24.95,17.56,31.6,31.6,0,0,0,9.88,10.22A69.26,69.26,0,0,0,75.71,91.75Z" transform="translate(-36 -38)"/><text x="-36" y="-38"></text><path class="cls-6" d="M104.27,78.42h6.07c2.31,0,2.4,2.89,2.22,4.63-.22,2.08-.76,3.41-1.78,4.11v0c1,.31.84,2.89.67,4.56a11.65,11.65,0,0,0,0,3.7H109a12.17,12.17,0,0,1,.12-3.27c.25-2.39-.19-3-.89-3h-2.82l-.65,6.25H102.5ZM105.76,86h3c.5,0,1.15-.57,1.31-2.17s-.43-2.13-1-2.13H106.2Z" transform="translate(-36 -38)"/><path class="cls-6" d="M114.23,78.42H122l-.34,3.25h-5.53l-.37,3.53H121l-.32,3.1h-5.25l-.41,3.91h5.58l-.34,3.25h-7.84Z" transform="translate(-36 -38)"/><path class="cls-6" d="M128.46,83.36c.09-2.22-.92-2.46-1.84-2.46s-1.63.86-1.75,2c-.09.91.23,1.41.79,1.6l2.74.93c1.47.5,2.5,1.67,2.18,4.78s-1.65,5.73-4.93,5.73c-2,0-4.62-.53-4.09-5.85h2.55c-.22,2.34.88,2.75,1.87,2.75s1.86-.64,2-2.13c.14-1.31-.34-1.67-1.21-2l-2-.65c-1.4-.45-2.71-1.34-2.35-4.82.39-3.8,2.08-5.35,4.69-5.35,1.72,0,4.2.6,3.86,5.42Z" transform="translate(-36 -38)"/><path class="cls-6" d="M132.85,78.42h7.8l-.34,3.25h-5.53l-.37,3.53h5.25l-.32,3.1h-5.25l-.41,3.91h5.58l-.34,3.25h-7.84Z" transform="translate(-36 -38)"/><path class="cls-6" d="M143.9,81.67h-3.1l.34-3.25h8.46l-.34,3.25h-3.1l-1.43,13.8h-2.27Z" transform="translate(-36 -38)"/><path class="cls-6" d="M150.39,78.42H156c2.37,0,2.65,2.89,2.41,5.18-.38,3.63-1.54,5.78-3.37,5.78h-3.52l-.63,6.09h-2.27Zm1.45,7.85h2.43c.7,0,1.52,0,1.76-2.34s-.42-2.41-1.06-2.41h-2.64Z" transform="translate(-36 -38)"/><path class="cls-6" d="M160.13,78.42h7.8l-.34,3.25h-5.53l-.37,3.53h5.25l-.32,3.1h-5.25L161,92.22h5.58l-.34,3.25h-7.84Z" transform="translate(-36 -38)"/><path class="cls-6" d="M169.22,78.42h6.07c2.31,0,2.4,2.89,2.22,4.63-.22,2.08-.76,3.41-1.78,4.11v0c1,.31.84,2.89.67,4.56a11.65,11.65,0,0,0,0,3.7H174a12.21,12.21,0,0,1,.12-3.27c.25-2.39-.19-3-.89-3h-2.82l-.65,6.25h-2.27ZM170.7,86h3c.5,0,1.15-.57,1.31-2.17s-.43-2.13-1-2.13h-2.89Z" transform="translate(-36 -38)"/><path class="cls-6" d="M179.09,78.42h2.27l-1,9.79c-.17,1.67-.43,4.49,1.65,4.49s2.41-2.82,2.58-4.49l1-9.79h2.27l-1.14,10.93c-.2,1.91-.8,6.59-5.07,6.59s-3.9-4.68-3.7-6.59Z" transform="translate(-36 -38)"/><path class="cls-6" d="M189.36,93.19c0,.56.14.92.68.92a.74.74,0,0,0,.83-.7c0-.36,0-.51-.53-.65l-.92-.27c-.65-.18-1-.61-.85-1.85.18-1.76,1.1-2.18,2-2.18,1.47,0,1.71,1,1.66,2.2H191c0-.67-.31-.86-.62-.86a.67.67,0,0,0-.76.69c0,.3,0,.51.47.61l.71.16c1,.23,1.32.87,1.2,2-.2,1.93-1.29,2.2-2.2,2.2-1.21,0-1.74-.72-1.64-2.26Z" transform="translate(-36 -38)"/><path class="cls-6" d="M192,93.07h1.13l-.21,2h-1.13Z" transform="translate(-36 -38)"/><path class="cls-6" d="M195,90.69c.33-2,1.26-2.23,2.11-2.23,1.5,0,1.71,1,1.59,2.21l-.33,3.23a6.05,6.05,0,0,0,0,1.31h-1a5.28,5.28,0,0,1,0-.69,1.84,1.84,0,0,1-1.59.94c-.83,0-1.35-.59-1.19-2.11s.88-1.92,1.53-2l1.13-.16c.33,0,.44-.16.5-.68s-.13-.78-.74-.78c-.45,0-.68.07-.93,1ZM197.6,92a1.17,1.17,0,0,1-.65.28l-.62.11c-.37.06-.58.27-.64.85s.17.91.57.91,1.17-.52,1.28-1.61Z" transform="translate(-36 -38)"/><path class="cls-6" d="M198.52,93.07h1.13l-.21,2h-1.13Z" transform="translate(-36 -38)"/><path class="cls-6" d="M204.42,91.1c0-.86-.33-1.14-.75-1.14-.65,0-1.1.72-1.23,2s.17,2,.82,2c.46,0,.87-.51,1-1.32h1.08c-.43,2.31-1.29,2.83-2.33,2.83-1.2,0-1.91-1-1.65-3.5s1.21-3.5,2.47-3.5c.81,0,1.7.5,1.67,2.65Z" transform="translate(-36 -38)"/></svg>