<svg id="Capa_1" data-name="Capa 1" xmlns="http://www.w3.org/2000/svg" xmlns:xlink="http://www.w3.org/1999/xlink" viewBox="0 0 174 78"><defs><style>.cls-1,.cls-2,.cls-3,.cls-4,.cls-6,.cls-7{fill-rule:evenodd;}.cls-1{fill:url(#radial-gradient);}.cls-2{fill:url(#radial-gradient-2);}.cls-3{fill:url(#radial-gradient-3);}.cls-4,.cls-8{fill:#1f6395;}.cls-5{fill:#fff;}.cls-6{fill:url(#radial-gradient-4);}.cls-7{fill:url(#radial-gradient-5);}</style><radialGradient id="radial-gradient" cx="140.82" cy="94.56" r="40.49" gradientTransform="translate(-19.13 -125.23) scale(1.37 2.39)" gradientUnits="userSpaceOnUse"><stop offset="0" stop-color="#93d0e4"/><stop offset="0.43" stop-color="#00a5d4"/><stop offset="0.98" stop-color="#006293"/></radialGradient><radialGradient id="radial-gradient-2" cx="141.85" cy="79.26" r="39.76" xlink:href="#radial-gradient"/><radialGradient id="radial-gradient-3" cx="101.99" cy="61.76" r="4.34" gradientTransform="translate(-98.94 -57.94) scale(1.69 1.68)" xlink:href="#radial-gradient"/><radialGradient id="radial-gradient-4" cx="105.17" cy="95.68" r="18.7" gradientTransform="translate(-98.94 -57.94) scale(1.69 1.68)" gradientUnits="userSpaceOnUse"><stop offset="0" stop-color="#ddeff4"/><stop offset="1" stop-color="#07b1d3"/></radialGradient><radialGradient id="radial-gradient-5" cx="90.22" cy="78.01" r="17.76" gradientTransform="translate(-98.94 -57.94) scale(1.69 1.68)" xlink:href="#radial-gradient"/></defs><title>Sin título-3</title><path class="cls-1" d="M209.53,99.72H95.74v1.44H209.42Q209.48,100.44,209.53,99.72Z" transform="translate(-36 -38)"/><path class="cls-2" d="M209.93,63.22H98.57v1.44H210C210,64.17,210,63.69,209.93,63.22Z" transform="translate(-36 -38)"/><path class="cls-3" d="M79.75,38c0,1.06,0,2.13-.08,3.19a11.79,11.79,0,0,1-1.25,4.25,16.8,16.8,0,0,1-2.67,3.95,13.27,13.27,0,0,1-4.53,3.34,10.19,10.19,0,0,1-4.94.78,10.24,10.24,0,0,1,0-2.82A12.48,12.48,0,0,1,67.81,46a15.15,15.15,0,0,1,6.82-6.52,14.65,14.65,0,0,1,4.11-1.39l.55-.1Z" transform="translate(-36 -38)"/><path class="cls-4" d="M183.08,70.22a3.45,3.45,0,0,1-.85-.11l-.34-.09v-.35a11.58,11.58,0,0,1,.19-2,5,5,0,0,0-.06-1.39,3.8,3.8,0,0,1,.11-2.1c.86-1.85,2.72-2.94,4.08-3.73l.23-.14a5,5,0,0,1,2-.77l.19,0h.15l.63.08-.12,1.09c-.05.5-.1,1-.17,1.49a12,12,0,0,1-.82,2.88,13.17,13.17,0,0,1-1.4,2.59,6.73,6.73,0,0,1-2.23,2.13A3.25,3.25,0,0,1,183.08,70.22Z" transform="translate(-36 -38)"/><path class="cls-5" d="M188.69,60l.19,0c-.08.71-.14,1.42-.24,2.13a11.55,11.55,0,0,1-.79,2.77,12.68,12.68,0,0,1-1.35,2.5,6.37,6.37,0,0,1-2.08,2,2.79,2.79,0,0,1-1.34.35,3,3,0,0,1-.74-.1,11.38,11.38,0,0,1,.18-1.89c.19-1.1-.41-2.45,0-3.37.85-1.82,2.81-2.89,4.14-3.67a4.55,4.55,0,0,1,1.78-.71l.23,0m0-.91-.13,0-.1,0h-.07a5.38,5.38,0,0,0-2.17.83l-.23.14c-1.41.83-3.35,2-4.27,3.93a4.2,4.2,0,0,0-.15,2.34,4.6,4.6,0,0,1,.06,1.26,12.22,12.22,0,0,0-.2,2v.7l.68.17a3.9,3.9,0,0,0,1,.12,3.7,3.7,0,0,0,1.77-.46,7.17,7.17,0,0,0,2.39-2.27,13.61,13.61,0,0,0,1.45-2.68,12.43,12.43,0,0,0,.85-3c.07-.51.13-1,.18-1.52,0-.21,0-.42.07-.64l.1-.88-.88-.12h-.19l-.13,0Z" transform="translate(-36 -38)"/><path class="cls-6" d="M90,62.56a31.58,31.58,0,0,0-12.06-7.63A28.94,28.94,0,0,1,57,55a31.57,31.57,0,0,0-12.6,8.27A47.33,47.33,0,0,0,90,62.56Zm7.5,12.28a62.95,62.95,0,0,1-60.22.89A31.22,31.22,0,0,0,36,84.59c0,1.24.25,3.74.39,4.94,9.44,4.68,19.86,6.06,31,6.06a70.09,70.09,0,0,0,31.44-7.46,31.78,31.78,0,0,0,.2-3.55A31.24,31.24,0,0,0,97.51,74.84Zm-56.78,26.3a31.6,31.6,0,0,0,53.27.53,75.91,75.91,0,0,1-53.27-.53Z" transform="translate(-36 -38)"/><path class="cls-7" d="M99,83.14a31.38,31.38,0,0,0-1.59-8.51c-2.88,9.12-7.25,18-13.18,25.21a56.26,56.26,0,0,1-21.18,15.85A31.84,31.84,0,0,0,69,116,31.46,31.46,0,0,0,99,83.14ZM56.39,75.6a45.46,45.46,0,0,0,10-22.41h-.34A31.52,31.52,0,0,0,53,56.69,34.91,34.91,0,0,1,37.2,76a31.39,31.39,0,0,0-.8,13.53A45.17,45.17,0,0,0,56.39,75.6ZM75.71,91.75A69.72,69.72,0,0,0,90,62.59l-.31-.34A31.62,31.62,0,0,0,78.11,55a57.55,57.55,0,0,1-12.7,28.15,57.22,57.22,0,0,1-24.95,17.56,31.6,31.6,0,0,0,9.88,10.22A69.26,69.26,0,0,0,75.71,91.75Z" transform="translate(-36 -38)"/><text x="-36" y="-38"></text><path class="cls-8" d="M103.21,74.52h6c2.27,0,2.36,2.86,2.18,4.58-.21,2.05-.75,3.37-1.75,4.06v0c.94.31.83,2.85.66,4.51a11.59,11.59,0,0,0,0,3.66h-2.43a12.11,12.11,0,0,1,.12-3.23c.24-2.36-.19-2.95-.88-2.95h-2.77l-.64,6.18h-2.23ZM104.67,82h2.95c.49,0,1.13-.57,1.29-2.15s-.43-2.1-1-2.1h-2.83Z" transform="translate(-36 -38)"/><path class="cls-8" d="M113,74.52h7.65l-.33,3.21h-5.43l-.36,3.49h5.15l-.32,3.07h-5.15l-.4,3.87h5.47L119,91.37h-7.7Z" transform="translate(-36 -38)"/><path class="cls-8" d="M127,79.41c.09-2.19-.91-2.43-1.8-2.43s-1.6.85-1.72,2c-.09.9.22,1.39.78,1.58l2.69.92c1.44.5,2.46,1.65,2.14,4.72s-1.62,5.66-4.84,5.66c-2,0-4.54-.52-4-5.78h2.5c-.22,2.31.87,2.71,1.83,2.71s1.82-.64,2-2.1c.13-1.3-.33-1.65-1.19-1.93l-2-.64c-1.38-.45-2.66-1.32-2.31-4.77.39-3.75,2-5.29,4.61-5.29,1.69,0,4.13.59,3.79,5.36Z" transform="translate(-36 -38)"/><path class="cls-8" d="M131.28,74.52h7.65l-.33,3.21h-5.43l-.36,3.49H138l-.32,3.07h-5.15l-.4,3.87h5.47l-.33,3.21h-7.7Z" transform="translate(-36 -38)"/><path class="cls-8" d="M142.12,77.73h-3l.33-3.21h8.31l-.33,3.21h-3l-1.41,13.64h-2.23Z" transform="translate(-36 -38)"/><path class="cls-8" d="M148.49,74.52H154c2.33,0,2.6,2.86,2.36,5.12-.37,3.59-1.51,5.71-3.31,5.71H149.6l-.62,6h-2.23Zm1.42,7.76h2.39c.69,0,1.5,0,1.73-2.31s-.41-2.38-1-2.38H150.4Z" transform="translate(-36 -38)"/><path class="cls-8" d="M158,74.52h7.65l-.33,3.21h-5.43l-.36,3.49h5.15l-.32,3.07h-5.15l-.4,3.87h5.47L164,91.37h-7.7Z" transform="translate(-36 -38)"/><path class="cls-8" d="M167,74.52h6c2.27,0,2.36,2.86,2.18,4.58-.21,2.05-.75,3.37-1.75,4.06v0c.94.31.83,2.85.66,4.51a11.6,11.6,0,0,0,0,3.66h-2.43a12.15,12.15,0,0,1,.12-3.23c.24-2.36-.19-2.95-.88-2.95H168.1l-.64,6.18h-2.23ZM168.43,82h2.95c.49,0,1.13-.57,1.29-2.15s-.43-2.1-1-2.1h-2.83Z" transform="translate(-36 -38)"/><path class="cls-8" d="M176.66,74.52h2.23l-1,9.67c-.17,1.65-.42,4.44,1.62,4.44s2.36-2.78,2.54-4.44l1-9.67h2.23l-1.12,10.81c-.2,1.89-.79,6.51-5,6.51s-3.83-4.63-3.63-6.51Z" transform="translate(-36 -38)"/><path class="cls-8" d="M186.75,89.12c0,.55.14.91.67.91a.73.73,0,0,0,.81-.7c0-.36,0-.5-.52-.65l-.91-.26c-.63-.18-1-.6-.84-1.82.18-1.74,1.08-2.16,1.93-2.16,1.44,0,1.68,1,1.63,2.17H188.4c0-.66-.31-.85-.61-.85a.66.66,0,0,0-.74.68c0,.3,0,.5.46.6l.7.16c1,.23,1.29.86,1.18,2-.2,1.91-1.26,2.17-2.16,2.17-1.18,0-1.71-.71-1.61-2.23Z" transform="translate(-36 -38)"/><path class="cls-8" d="M190.08,89.07h1.13l-.21,2h-1.13Z" transform="translate(-36 -38)"/><path class="cls-8" d="M192.33,86.65c.33-2,1.24-2.21,2.08-2.21,1.47,0,1.68,1,1.56,2.18l-.33,3.19a6,6,0,0,0,0,1.29h-1a5.26,5.26,0,0,1,0-.68,1.81,1.81,0,0,1-1.56.92c-.82,0-1.33-.59-1.17-2.09s.87-1.89,1.5-2l1.11-.16c.32,0,.44-.16.49-.67s-.13-.77-.73-.77c-.44,0-.67.07-.91,1ZM194.84,88a1.14,1.14,0,0,1-.64.28l-.61.11c-.37.06-.57.26-.63.84s.17.9.55.9,1.15-.52,1.26-1.6Z" transform="translate(-36 -38)"/><path class="cls-8" d="M196.56,89.07h1.13l-.21,2h-1.13Z" transform="translate(-36 -38)"/><path class="cls-8" d="M201.53,87.05c0-.85-.32-1.13-.74-1.13-.64,0-1.08.71-1.21,2s.17,2,.8,2c.45,0,.85-.5,1-1.31h1.06c-.42,2.28-1.27,2.8-2.29,2.8-1.18,0-1.87-1-1.62-3.45s1.18-3.46,2.42-3.46c.79,0,1.67.49,1.64,2.62Z" transform="translate(-36 -38)"/></svg>